<?xml version="1.0" encoding="utf-8"?>
<svg viewBox="65.6686 2.4537 182.739 23.454" width="182.739" height="23.454" xmlns="http://www.w3.org/2000/svg">
  <g transform="matrix(0.08560001105070114, 0, 0, -0.10720200091600418, 84.06096011491063, 38.87163601624425)" fill="#000000" stroke="none" style="">
    <path d="M877 334 c-4 -4 -7 -52 -7 -106 0 -92 1 -98 20 -98 20 0 21 5 18 102 -3 94 -11 121 -31 102z" style="fill: rgb(255, 255, 255);"/>
    <path d="M794 309 c-9 -15 12 -33 30 -26 9 4 16 13 16 22 0 17 -35 21 -46 4z" style="fill: rgb(255, 255, 255);"/>
    <path d="M360 300 c0 -5 11 -10 25 -10 27 0 28 -5 29 -105 1 -42 4 -50 21 -53 19 -3 20 3 20 75 0 78 0 78 28 81 57 7 24 22 -48 22 -43 0 -75 -4 -75 -10z" style="fill: rgb(255, 255, 255);"/>
    <path d="M1410 279 c0 -7 -8 -18 -17 -25 -17 -13 -17 -13 0 -14 13 0 17 -9 17 -40 0 -27 7 -47 20 -60 21 -21 29 -23 54 -14 24 9 19 24 -6 21 -21 -2 -23 3 -26 46 -3 45 -2 47 22 47 15 0 26 5 26 10 0 6 -11 10 -25 10 -16 0 -25 6 -25 15 0 8 -9 15 -20 15 -11 0 -20 -5 -20 -11z" style="fill: rgb(255, 255, 255);"/>
    <path d="M530 195 c0 -58 2 -65 20 -65 17 0 20 7 20 44 0 44 16 69 40 64 7 -2 15 3 17 10 6 15 -11 16 -38 2 -13 -7 -19 -7 -19 0 0 5 -9 10 -20 10 -18 0 -20 -7 -20 -65z" style="fill: rgb(255, 255, 255);"/>
    <path d="M663 253 c-14 -5 -18 -33 -5 -33 4 0 13 5 19 11 15 15 43 4 43 -16 0 -9 -9 -15 -24 -15 -32 0 -56 -24 -49 -49 6 -24 29 -34 52 -22 10 6 23 6 31 1 8 -5 18 -6 22 -4 13 8 9 109 -4 122 -12 12 -62 15 -85 5z m57 -87 c0 -8 -5 -18 -11 -22 -14 -8 -33 11 -25 25 10 16 36 13 36 -3z" style="fill: rgb(255, 255, 255);"/>
    <path d="M800 196 c0 -57 2 -66 18 -66 16 0 18 9 18 62 -1 52 -4 63 -18 66 -16 3 -18 -5 -18 -62z" style="fill: rgb(255, 255, 255);"/>
    <path d="M938 255 c-3 -3 4 -32 16 -65 17 -50 25 -60 44 -60 17 0 28 10 42 43 26 56 26 87 0 87 -14 0 -20 -7 -20 -22 0 -32 -11 -68 -20 -68 -4 0 -10 14 -14 32 -9 44 -32 69 -48 53z" style="fill: rgb(255, 255, 255);"/>
    <path d="M1106 241 c-27 -30 -18 -92 16 -109 28 -13 78 -7 78 10 0 5 -13 7 -29 3 -24 -5 -32 -2 -41 14 -9 19 -8 21 14 21 41 0 56 11 56 40 0 43 -62 57 -94 21z m59 -22 c0 -8 -10 -15 -23 -17 -21 -3 -22 -1 -12 18 12 23 35 22 35 -1z" style="fill: rgb(255, 255, 255);"/>
    <path d="M1238 194 c3 -46 8 -64 17 -64 9 0 15 15 17 46 2 32 9 51 21 58 25 16 37 -8 30 -61 -5 -39 -4 -43 16 -43 19 0 21 6 21 54 0 31 -5 58 -12 64 -7 5 -35 10 -63 10 l-50 0 3 -64z" style="fill: rgb(255, 255, 255);"/>
    <path d="M1528 198 c5 -67 15 -82 47 -72 11 3 32 5 48 5 27 -1 27 -1 27 64 0 58 -2 65 -20 65 -18 0 -20 -7 -20 -54 0 -37 -4 -56 -14 -59 -23 -9 -36 15 -36 65 0 40 -3 48 -18 48 -16 0 -18 -7 -14 -62z" style="fill: rgb(255, 255, 255);"/>
    <path d="M1689 253 c-1 -5 -1 -33 -1 -63 0 -43 3 -56 16 -58 13 -3 16 6 16 42 0 35 4 48 20 56 11 6 25 8 30 5 6 -3 10 1 10 9 0 19 -21 21 -39 4 -11 -10 -14 -10 -18 0 -5 13 -32 17 -34 5z" style="fill: rgb(255, 255, 255);"/>
    <path d="M1820 240 c-20 -20 -26 -65 -12 -86 21 -32 102 -42 102 -13 0 6 -9 8 -20 4 -21 -7 -50 9 -50 26 0 5 9 9 21 9 49 0 76 39 47 68 -19 19 -66 14 -88 -8z m60 -15 c0 -16 -27 -32 -37 -22 -3 4 -3 13 0 22 8 20 37 20 37 0z" style="fill: rgb(255, 255, 255);"/>
  </g>
  <g id="g-1" transform="matrix(0.09751000255346298, 0, 0, 0.09015000611543657, 63.13325976033896, -7.8383303856601)" style="">
    <g>
      <path d="M247.638,369.839l0.674,0.065h0.017l0.147,0.017l0.148,0.017h0.016    l0.493,0.033l0.083,0.016h0.082l0.165,0.017h0.049l0.115,0.017l0.164,0.017h0.017h0.147l0.148,0.017l0,0l0.164,0.016h0.131    l0.033,0.017l0.165,0.017h0.082h0.083l0.164,0.017h0.049l0.115,0.017h0.148l0.033,0.016h0.131l0.148,0.018h0.016l0.165,0.016    h0.115h0.049l0.164,0.017h0.083l0.066,0.017h0.164l0.049,0.017h0.115l0.164,0.017h0.017l0.148,0.016h0.131h0.017l0.164,0.017    h0.115h0.05l0.164,0.017h0.066l0.098,0.017h0.148l0.049,0.017h0.115l0.164,0.016l0,0h0.164l0.115,0.017h0.034h0.164l0.098,0.017    h0.066l0.165,0.017h0.065h0.099l0.147,0.017h0.034h0.131l0.164,0.016h0.164l0.132,0.017h0.017l0.164,0.017h0.098h0.066    l0.164,0.017h0.066h0.099l0.147,0.017h0.049h0.115l0.165,0.016l0,0h0.164l0.132,0.018h0.032h0.164h0.099l0.066,0.016h0.147h0.082    l0.082,0.017h0.181h0.017l0.148,0.017h0.147h0.033l0.18,0.016h0.082h0.083h0.181h0.032l0.148,0.018h0.147h0.017l0.181,0.016h0.099    h0.065l0.181,0.018h0.05h0.131h0.164h0.017l0.164,0.016h0.115h0.066l0.181,0.017h0.049h0.132l0.477,0.017h0.049l0.181,0.017h0.065    h0.115l0.346,0.017h0.147h0.033h0.263l0.098,0.016h0.181h0.034l1.215,0.033h0.017l0.559,0.017h0.05h0.131l0.493,0.017h0.05    l0.903,0.016h0.032h0.197l0.559,0.017h0.181h0.017h0.181h0.132h0.065l0.196,0.017h0.051h0.13h0.97l0.197,0.017h0.033h0.164h0.164    h0.033h0.114h0.1h0.081c2.169-0.017,4.189-0.033,6.129-0.099l1.527-0.049l-0.082-0.1l-0.624-0.723l0,0l-0.625-0.706l0,0    l-0.624-0.706l0,0l-0.624-0.724l0,0l-0.608-0.706h-0.016l-0.608-0.706l-0.017-0.017l-0.607-0.707h-0.016l-0.608-0.706v-0.017    l-0.608-0.689l-0.017-0.017l-0.985-1.134l-0.246-0.279v-0.016l-0.608-0.69l-0.017-0.017l-0.607-0.707l-0.017-0.016l-0.591-0.69    l-0.017-0.017l-0.608-0.689l-0.017-0.033l-0.591-0.689l-0.017-0.018l-0.607-0.689l-0.017-0.033l-0.592-0.689l-0.017-0.017    l-0.591-0.69l-0.033-0.032l-0.591-0.674l-0.017-0.032l-0.592-0.69l-0.033-0.033l-0.574-0.673l-0.033-0.033l-0.591-0.689    l-0.017-0.033l-0.592-0.674l-0.033-0.033l-0.574-0.689l-0.034-0.033l-0.574-0.674l-0.032-0.032l-0.592-0.69l-0.033-0.033    l-0.575-0.673l-0.033-0.032l-0.574-0.691l-0.032-0.032l-0.132-0.165l-1.052-1.231l-0.033-0.032l-0.574-0.674l-0.033-0.05    l-0.575-0.657l-0.033-0.049l-0.574-0.674l-0.049-0.049l-0.559-0.674L256,345.623l-0.559-0.674l-0.049-0.049l-0.559-0.657    l-0.049-0.065l-0.558-0.657l-0.049-0.05l-0.559-0.674l-0.049-0.049l-0.559-0.656l-0.049-0.05l-1.167-1.38l-0.049-0.066    l-0.558-0.656l-0.05-0.05l-0.558-0.657l-0.049-0.065l-0.542-0.657l-0.066-0.049l-0.542-0.658l-0.066-0.065l-0.542-0.657    l-0.049-0.065l-0.559-0.641l-0.049-0.065l-0.558-0.657l-0.05-0.065l-0.558-0.641l-0.049-0.082l-0.542-0.642l-0.066-0.065    l-0.542-0.657l-0.065-0.065l-0.542-0.641l-0.066-0.066l-0.542-0.656l-0.066-0.066l-0.525-0.641l-0.066-0.082l-0.542-0.641    l-0.066-0.066l-0.542-0.641l-0.065-0.082l-0.542-0.641l-0.066-0.082l-0.525-0.624l-0.083-0.083l-0.525-0.64l-0.674-0.789    l-0.542-0.641l-0.066-0.082l-0.542-0.641l-0.066-0.082l-0.525-0.624l-0.082-0.082l-17.135-20.289h-0.017l-9.562,1.625    c-0.739,0.165-1.528-0.098-2.037-0.722l-20.125-25.53l-1.298-0.115c-3.056,3.565-6.21,7.213-9.217,10.613    c-3.367,3.762-6.801,7.491-10.202,10.925c-0.936,0.937-1.741,1.676-2.415,2.267c0.591,0.92,1.232,1.841,1.922,2.777    c0.969,1.314,2.021,2.611,3.187,3.893l0.132,0.066l7.935,0.607c0.476,0.049,0.953,0.264,1.314,0.641l14.703,15.771l7.032-1.002    c0.607-0.082,1.249,0.099,1.708,0.559C218.231,340.711,233.214,357.09,247.638,369.839 M175.616,167.342    c4.698,0,8.969,1.988,12.042,5.191c3.072,3.188,4.961,7.573,4.961,12.42c0,4.846-1.89,9.232-4.961,12.42    c-3.073,3.203-7.344,5.191-12.042,5.191c-4.699,0-8.954-1.988-12.043-5.191c-3.055-3.188-4.945-7.59-4.945-12.42    s1.89-9.232,4.945-12.42C166.662,169.33,170.917,167.342,175.616,167.342z M167.894,263.58l-0.033-0.05l-0.017-0.033l-0.017-0.049    c-1.15-2.152-2.234-4.305-3.335-6.474c-4.468-8.854-8.904-17.627-16.905-25.365l-1.675-1.626    c-1.578-1.544-2.284-2.251-2.547-2.268c-0.247-0.017-0.985,0.395-2.316,1.118c-1.002,0.558-2.267,1.264-3.877,2.053    c-8.001,4.059-15.13,7.804-20.815,12.748c-5.585,4.848-9.89,10.926-12.436,19.764c-2.448,8.494-5.274,15.213-8.707,21.57    c-3.385,6.276-7.377,12.256-12.158,19.304c-1.725,2.612-3.63,5.372-5.207,8.067c-7.919,12.502-15.049,17.939-22.425,23.541    l-0.131,0.099c-4.945,3.763-10.005,7.591-15.459,13.767l-0.083,0.115c-3.68,4.174-6.44,7.328-8.723,10.613    c-1.824,2.629-3.401,5.438-5.027,9.068l5.421-0.246c3.039-0.115,5.914-0.181,8.707-0.181c16.905,0.017,33.711,0.673,50.551,1.33    c20.601,0.789,41.235,1.594,61.968,1.2l5.585-0.099c4.502-0.05,9.069-0.132,13.521-0.411c8.33-0.543,14.835-1.363,20.782-2.119    c12.667-1.594,22.869-2.892,42.041-0.575c2.25,0.263,4.354,0.509,6.358,0.723c-13.16-12.157-26.072-26.121-38.707-38.673    l-7.08,1.02c-0.723,0.098-1.396-0.197-1.823-0.707l-14.819-15.887l-7.311-0.559l-0.493-0.114l-0.723-0.247    c-0.328-0.131-0.608-0.279-0.854-0.443c-0.181-0.115-0.328-0.263-0.46-0.41c-1.297-1.43-2.48-2.892-3.564-4.371    c-1.068-1.445-2.07-2.957-3.04-4.484c-0.525-0.871-0.345-1.988,0.427-2.612l0.099-0.082c0.739-0.624,1.856-1.544,3.384-3.088    c3.286-3.303,6.67-6.982,10.038-10.777c2.546-2.858,4.978-5.668,7.31-8.362l-4.682-0.443c-0.525-0.049-1.035-0.296-1.396-0.739    C173.415,273.387,170.506,268.492,167.894,263.58z M196.414,160.408c0.772-0.805,2.037-0.82,2.842-0.049    c0.789,0.772,0.821,2.037,0.049,2.842l-5.06,5.258c-0.772,0.805-2.037,0.821-2.842,0.065c-0.806-0.772-0.821-2.054-0.049-2.858    L196.414,160.408z M207.076,182.932c1.101,0,2.021,0.904,2.021,2.021s-0.919,2.02-2.021,2.02h-7.163    c-1.117,0-2.021-0.902-2.021-2.02s0.903-2.021,2.021-2.021H207.076z M199.305,206.704c0.772,0.806,0.74,2.087-0.049,2.858    c-0.805,0.756-2.07,0.739-2.842-0.065l-5.06-5.257c-0.772-0.806-0.756-2.087,0.049-2.859c0.805-0.755,2.07-0.738,2.842,0.066    L199.305,206.704z M177.636,217.695c0,1.117-0.903,2.02-2.021,2.02c-1.101,0-2.021-0.902-2.021-2.02v-7.442    c0-1.118,0.92-2.021,2.021-2.021c1.117,0,2.021,0.902,2.021,2.021V217.695z M154.833,209.497    c-0.772,0.805-2.038,0.821-2.842,0.065c-0.806-0.771-0.822-2.053-0.05-2.858l5.044-5.257c0.772-0.805,2.054-0.821,2.859-0.066    c0.789,0.772,0.821,2.054,0.049,2.859L154.833,209.497z M144.171,186.973c-1.117,0-2.021-0.902-2.021-2.02    s0.904-2.021,2.021-2.021h7.163c1.1,0,2.004,0.904,2.004,2.021s-0.904,2.02-2.004,2.02H144.171z M151.941,163.201    c-0.772-0.805-0.755-2.069,0.05-2.842c0.804-0.771,2.07-0.756,2.842,0.049l5.06,5.258c0.772,0.805,0.74,2.086-0.049,2.858    c-0.805,0.756-2.086,0.739-2.859-0.065L151.941,163.201z M173.594,152.211c0-1.117,0.92-2.021,2.021-2.021    c1.117,0,2.021,0.903,2.021,2.021v7.459c0,1.1-0.903,2.02-2.021,2.02c-1.101,0-2.021-0.92-2.021-2.02V152.211z M283.337,370.857    h15.509c12.469,0,26.762-2.087,40.841-4.123c20.93-3.057,41.433-6.029,55.774-2.137l0.132,0.033l0.164,0.05    c-0.985-2.087-1.84-4.173-2.678-6.228c-2.448-5.996-4.829-11.811-9.791-15.984c-2.202-1.855-7.688-5.322-14.358-9.528    c-15.525-9.824-37.359-23.624-41.68-32.446c-2.07-4.238-3.499-8.017-4.78-11.418c-3.581-9.479-5.931-15.689-18.039-17.627    c-2.711-0.428-6.062-3.039-9.331-6.391c-4.912-5.012-9.907-11.813-11.96-14.818c-1.791-2.613-3.303-4.995-4.617-7.049    c-4.911-7.721-6.899-10.842-18.728-17.035c-0.985-0.51-1.364-1.727-0.854-2.712c0.509-0.985,1.726-1.363,2.711-0.854    c12.781,6.703,14.934,10.071,20.272,18.449c1.216,1.923,2.628,4.141,4.534,6.934c1.988,2.908,6.802,9.463,11.517,14.26    c2.743,2.81,5.355,4.978,7.081,5.24c14.44,2.316,17.103,9.381,21.176,20.191c1.265,3.352,2.679,7.08,4.634,11.072    c3.811,7.771,25.086,21.226,40.217,30.787c6.768,4.288,12.338,7.804,14.785,9.857c5.75,4.83,8.313,11.089,10.957,17.562    c1.232,3.039,2.498,6.128,4.075,9.02c11.977,2.71,19.369,2.431,30.441,2.036c2.646-0.098,5.487-0.213,8.756-0.278    c9.924-0.229,18.828,0.673,27.667,1.593c6.013,0.625,12.008,1.232,18.235,1.479c-4.847-6.769-7.837-14.063-10.745-21.21    c-3.942-9.627-7.754-18.975-15.853-25.775c-9.94-8.346-20.126-12.075-29.638-15.559c-16.855-6.177-31.739-11.615-40.595-39.148    l-0.099-0.264c-2.365-8.739-4.879-7.836-7.376-6.932c-3.681,1.33-7.36,2.661-10.694-4.157c-2.58-5.29-4.601-9.874-6.572-14.325    c-3.598-8.198-7.031-16.002-12.502-25.07c-4.419-6.686-7.212-6.719-11.5-6.785c-1.84-0.016-3.927-0.049-6.44-0.443    c-4.008-0.641-9.084-4.648-14.128-9.791c-7.705-7.886-15.559-18.564-18.795-23.313c-2.874-4.189-5.224-7.885-7.277-11.105    c-7.722-12.124-10.958-17.184-28.733-26.663c-4.797,5.224-10.268,10.005-15.755,14.786c-10.53,9.166-21.077,18.383-26.285,30.441    c-6.834,15.887-12.782,27.271-19.945,38.18c-7.163,10.893-15.458,21.209-27.025,34.992c-1.61,1.906-2.907,3.286-3.926,4.288    c2.235,4.107,4.699,8.165,7.739,12.06l7.623,0.705h0.032h0.034l0.032,0.018h0.017l3.187,0.295    c0.575,0.049,1.084,0.329,1.413,0.756l19.911,25.251l9.626-1.627l0.034-0.017h0.049h0.034l0.032-0.016h0.033l0,0h0.033h0.049    h0.033h0.032h0.033h0.033h0.049h0.032h0.033l0.033,0.016l0,0h0.033l0,0h0.033l0,0h0.033l0,0l0.049,0.017l0,0h0.032l0,0    l0.033,0.017l0,0h0.033l0,0h0.033v0.017h0.033l0,0l0.033,0.017l0,0h0.032l0,0l0.034,0.016l0,0h0.032v0.017h0.033l0,0l0.033,0.017    l0,0l0.032,0.017l0,0h0.034v0.017l0.098,0.033l0,0l0.033,0.016l0,0l0.016,0.017h0.017l0.017,0.017l0,0l0.032,0.017l0,0    l0.034,0.017l0,0l0.049,0.032h0.017l0.016,0.017v0.017l0.033,0.017l0,0l0,0l0.049,0.032h0.017l0.016,0.017l0,0l0.033,0.017v0.017    l0.016,0.016l0,0l0.033,0.017l0,0l0.033,0.033l0,0v0.017h0.017l0,0l0.017,0.016h0.017v0.018l0.016,0.016l0,0l0.034,0.017v0.017    l0.016,0.016l0,0l0.017,0.018l0.017,0.016l0.017,0.018l0,0l0.016,0.016v0.017l0.033,0.017l0,0l0.017,0.033l0,0l0.016,0.016v0.017    l0.017,0.017h0.017l0.016,0.033l0,0l0.329,0.377v0.017l0.575,0.674l0.083,0.082v0.017l0.083,0.082l0.558,0.657v0.017l0.313,0.361    l0.017,0.016l0.624,0.724v0.017l0.313,0.345v0.017l1.216,1.429l0.016,0.017l2.054,2.432l0.017,0.017l0.854,1.002v0.017    l0.838,0.985l0.017,0.017l2.99,3.531l0,0l1.051,1.25l0.017,0.016l1.035,1.216l0.016,0.017l0.229,0.296l0.017,0.017l1.298,1.527    l0.231,0.263l0.032,0.05l0.213,0.246l0.033,0.049l0.213,0.264l0.049,0.033l0.214,0.262l0.032,0.05l0.214,0.247l0.049,0.049    l0.213,0.246l0.033,0.066l0.213,0.229l0.049,0.065l0.198,0.247l0.049,0.049l0.198,0.247l0.065,0.065l0.443,0.525l0.066,0.082    l0.181,0.214l0.066,0.082l0.181,0.213l0.083,0.082l0.542,0.642l0.066,0.082l0.607,0.723l0.542,0.641l0.065,0.083l0.542,0.641    l0.066,0.065l0.542,0.641l0.066,0.082l0.542,0.641l0.066,0.083l0.542,0.64l0.065,0.082l0.542,0.642l0.05,0.082l0.558,0.641    l0.049,0.065l0.559,0.657l0.065,0.065l0.542,0.657l0.049,0.066l0.559,0.64l0.049,0.083l0.558,0.641l0.05,0.065l0.558,0.657    l0.049,0.065l0.559,0.657l0.049,0.065l0.559,0.657l0.049,0.066l0.559,0.641l0.049,0.065l0.558,0.657l0.05,0.065l0.558,0.657    l0.049,0.065l0.559,0.657l0.049,0.066l0.559,0.656l0.049,0.05l0.559,0.657l0.049,0.065l0.558,0.657l0.05,0.049l0.558,0.674    l0.049,0.049l0.559,0.658l0.049,0.065l0.559,0.657l0.049,0.049l0.574,0.674l0.034,0.049l0.574,0.658l0.033,0.065l0.575,0.657    l0.032,0.049l0.575,0.674l0.033,0.049l0.575,0.658l0.032,0.049l0.575,0.673l0.033,0.05l0.574,0.674l0.05,0.032l0.575,0.673    l0.032,0.051l0.576,0.673l0.032,0.032l0.574,0.674l0.033,0.05l0.575,0.673l0.033,0.033l0.574,0.674l0.034,0.033l0.574,0.689    l0.032,0.033l0.592,0.674l0.017,0.033l0.591,0.673l0.018,0.032l0.591,0.691l0.032,0.032l0.576,0.673l0.032,0.033l0.591,0.69    l0.018,0.017l0.591,0.689l0.017,0.033l0.592,0.674l0.017,0.032l0.591,0.674l0.033,0.033l0.591,0.689l0.017,0.017l0.592,0.689    l0.017,0.017l1.215,1.397v0.016l0.608,0.69l0.017,0.017l0.591,0.689l0.017,0.017l0.608,0.706l0,0l0.607,0.707h0.017l0.591,0.706    h0.017l0.608,0.706l0,0l0.608,0.69l0.016,0.017l0.607,0.689v0.017l0.608,0.69v0.016l0.624,0.69l0,0l0.607,0.706l0,0l0.625,0.707    l0.608,0.689l0.049,0.049l0.032,0.051l0,0l0.033,0.049h0.017l0.033,0.049l0,0l0.032,0.033l0.049,0.049l0.033,0.05l0,0l0.05,0.032    l0,0l0.033,0.05l0.032,0.05l0,0l0.049,0.032l0,0l0.034,0.05l0,0l0.032,0.032l0,0l0.049,0.05l0,0l0.033,0.032l0,0l0.033,0.05l0,0    l0.033,0.032l0,0l0.049,0.033v0.017l0.032,0.032l0,0l0.033,0.034l0,0l0.033,0.031l0,0l0.033,0.051l0,0l0.032,0.032l0,0    l0.032,0.032l0,0l0.033,0.033v0.017l0.033,0.033h0.017l0.033,0.032l0,0l0.032,0.033l0,0l0.032,0.033l0,0l0.033,0.032l0.018,0.033    l0.016,0.017l0.017,0.033h0.017l0.017,0.032h0.016l0.017,0.032l0,0l0.032,0.033l0.034,0.033l0,0l0.032,0.033l0.033,0.016v0.017    l0.032,0.033l0,0l0.033,0.017l0.016,0.032l0,0l0.034,0.033l0.032,0.032l0.033,0.033l0,0l0.016,0.033h0.017l0.017,0.016l0,0    l0.033,0.033l0.033,0.033l0.017,0.033l0,0l0.032,0.016l0.032,0.033l0.017,0.033l0,0l0.033,0.017l0.033,0.032l0.017,0.033    l0.032,0.017l0.017,0.032l0.032,0.017l0.017,0.033l0.034,0.032l0.016,0.017l0.033,0.033l0.016,0.017l0.033,0.016l0.032,0.05    l0.034,0.033l0.049,0.049l0.032,0.033l0.033,0.032l0.032,0.033l0.034,0.049l0.032,0.033l0.049,0.033l0.033,0.033l0.033,0.032    l0.017,0.032l0.049,0.033l0.017,0.033l0.032,0.033L283.337,370.857z" style="fill-rule: evenodd; clip-rule: evenodd; fill: rgb(34, 49, 15);"/>
    </g>
  </g>
</svg>