<svg xmlns="http://www.w3.org/2000/svg" xmlns:xlink="http://www.w3.org/1999/xlink" width="1920" zoomAndPan="magnify" viewBox="0 0 1440 809.999993" height="1080" preserveAspectRatio="xMidYMid meet" version="1.0"><defs><clipPath id="fffa47f223"><path d="M 749 10.558594 L 750 10.558594 L 750 14.6875 L 749 14.6875 Z M 749 10.558594 " clip-rule="nonzero"/></clipPath><clipPath id="c770013023"><path d="M 748 10.558594 L 749 10.558594 L 749 12 L 748 12 Z M 748 10.558594 " clip-rule="nonzero"/></clipPath><clipPath id="ee36e392ed"><path d="M 741 11 L 745 11 L 745 14.6875 L 741 14.6875 Z M 741 11 " clip-rule="nonzero"/></clipPath><clipPath id="c0aee0331d"><path d="M 756 11 L 759 11 L 759 14.6875 L 756 14.6875 Z M 756 11 " clip-rule="nonzero"/></clipPath><clipPath id="3e81632b1d"><path d="M 744 12 L 746 12 L 746 14.6875 L 744 14.6875 Z M 744 12 " clip-rule="nonzero"/></clipPath><clipPath id="16d2505e09"><path d="M 746 12 L 748 12 L 748 14.6875 L 746 14.6875 Z M 746 12 " clip-rule="nonzero"/></clipPath><clipPath id="d78b897d63"><path d="M 748 12 L 749 12 L 749 14.6875 L 748 14.6875 Z M 748 12 " clip-rule="nonzero"/></clipPath><clipPath id="70697931f4"><path d="M 750 12 L 753 12 L 753 14.6875 L 750 14.6875 Z M 750 12 " clip-rule="nonzero"/></clipPath><clipPath id="5dd3d36859"><path d="M 752 12 L 755 12 L 755 14.6875 L 752 14.6875 Z M 752 12 " clip-rule="nonzero"/></clipPath><clipPath id="95a52607fb"><path d="M 754 12 L 757 12 L 757 14.6875 L 754 14.6875 Z M 754 12 " clip-rule="nonzero"/></clipPath><clipPath id="1edb936f45"><path d="M 758 12 L 761 12 L 761 14.6875 L 758 14.6875 Z M 758 12 " clip-rule="nonzero"/></clipPath><clipPath id="ab31e1de2a"><path d="M 761 12 L 763 12 L 763 14.6875 L 761 14.6875 Z M 761 12 " clip-rule="nonzero"/></clipPath><clipPath id="4b9264d345"><path d="M 762 12 L 764.96875 12 L 764.96875 14.6875 L 762 14.6875 Z M 762 12 " clip-rule="nonzero"/></clipPath><clipPath id="7b002b16e4"><path d="M 733.183594 10.558594 L 742 10.558594 L 742 14.6875 L 733.183594 14.6875 Z M 733.183594 10.558594 " clip-rule="nonzero"/></clipPath><clipPath id="73b0baa5e6"><path d="M 347 724.210938 L 349 724.210938 L 349 728.339844 L 347 728.339844 Z M 347 724.210938 " clip-rule="nonzero"/></clipPath><clipPath id="75031661f2"><path d="M 346 724.210938 L 348 724.210938 L 348 726 L 346 726 Z M 346 724.210938 " clip-rule="nonzero"/></clipPath><clipPath id="9b5ba35750"><path d="M 340 724.210938 L 343 724.210938 L 343 728.339844 L 340 728.339844 Z M 340 724.210938 " clip-rule="nonzero"/></clipPath><clipPath id="ef37c374d6"><path d="M 355 725 L 357 725 L 357 728.339844 L 355 728.339844 Z M 355 725 " clip-rule="nonzero"/></clipPath><clipPath id="430a1ef37d"><path d="M 342 725 L 345 725 L 345 728.339844 L 342 728.339844 Z M 342 725 " clip-rule="nonzero"/></clipPath><clipPath id="6e4090f6bb"><path d="M 344 725 L 347 725 L 347 728.339844 L 344 728.339844 Z M 344 725 " clip-rule="nonzero"/></clipPath><clipPath id="ba51a82106"><path d="M 346 725 L 348 725 L 348 728.339844 L 346 728.339844 Z M 346 725 " clip-rule="nonzero"/></clipPath><clipPath id="3f1971d5b1"><path d="M 348 725 L 351 725 L 351 728.339844 L 348 728.339844 Z M 348 725 " clip-rule="nonzero"/></clipPath><clipPath id="9c14f07a03"><path d="M 350 725 L 353 725 L 353 728.339844 L 350 728.339844 Z M 350 725 " clip-rule="nonzero"/></clipPath><clipPath id="1083a39a50"><path d="M 352 725 L 355 725 L 355 728.339844 L 352 728.339844 Z M 352 725 " clip-rule="nonzero"/></clipPath><clipPath id="cb021c5782"><path d="M 357 725 L 359 725 L 359 728.339844 L 357 728.339844 Z M 357 725 " clip-rule="nonzero"/></clipPath><clipPath id="cf25ba6fa4"><path d="M 359 725 L 361 725 L 361 728.339844 L 359 728.339844 Z M 359 725 " clip-rule="nonzero"/></clipPath><clipPath id="b3a97a272d"><path d="M 361 725 L 363 725 L 363 728.339844 L 361 728.339844 Z M 361 725 " clip-rule="nonzero"/></clipPath><clipPath id="aee72ff7a9"><path d="M 331.507812 724.210938 L 340 724.210938 L 340 728.339844 L 331.507812 728.339844 Z M 331.507812 724.210938 " clip-rule="nonzero"/></clipPath><clipPath id="22ed894272"><path d="M 1098 797.449219 L 1099 797.449219 L 1099 799.765625 L 1098 799.765625 Z M 1098 797.449219 " clip-rule="nonzero"/></clipPath><clipPath id="60fa274bd2"><path d="M 1097 797.449219 L 1099 797.449219 L 1099 798 L 1097 798 Z M 1097 797.449219 " clip-rule="nonzero"/></clipPath><clipPath id="ff01e91075"><path d="M 1093 797.449219 L 1096 797.449219 L 1096 799.765625 L 1093 799.765625 Z M 1093 797.449219 " clip-rule="nonzero"/></clipPath><clipPath id="f352a540ff"><path d="M 1103 797.449219 L 1105 797.449219 L 1105 799.765625 L 1103 799.765625 Z M 1103 797.449219 " clip-rule="nonzero"/></clipPath><clipPath id="8fb08d92b0"><path d="M 1095 798 L 1097 798 L 1097 799.765625 L 1095 799.765625 Z M 1095 798 " clip-rule="nonzero"/></clipPath><clipPath id="1215462f50"><path d="M 1096 798 L 1098 798 L 1098 799.765625 L 1096 799.765625 Z M 1096 798 " clip-rule="nonzero"/></clipPath><clipPath id="dbaa899c1e"><path d="M 1097 798 L 1099 798 L 1099 799.765625 L 1097 799.765625 Z M 1097 798 " clip-rule="nonzero"/></clipPath><clipPath id="b4b302718f"><path d="M 1099 798 L 1101 798 L 1101 799.765625 L 1099 799.765625 Z M 1099 798 " clip-rule="nonzero"/></clipPath><clipPath id="fea15fb182"><path d="M 1100 798 L 1102 798 L 1102 799.765625 L 1100 799.765625 Z M 1100 798 " clip-rule="nonzero"/></clipPath><clipPath id="ec2bad8cc2"><path d="M 1102 798 L 1104 798 L 1104 799.765625 L 1102 799.765625 Z M 1102 798 " clip-rule="nonzero"/></clipPath><clipPath id="bf2901a7dd"><path d="M 1104 798 L 1106 798 L 1106 799.765625 L 1104 799.765625 Z M 1104 798 " clip-rule="nonzero"/></clipPath><clipPath id="143f0a6a54"><path d="M 1106 798 L 1108 798 L 1108 799.765625 L 1106 799.765625 Z M 1106 798 " clip-rule="nonzero"/></clipPath><clipPath id="7ee01c8e05"><path d="M 1107 798 L 1108.929688 798 L 1108.929688 799.765625 L 1107 799.765625 Z M 1107 798 " clip-rule="nonzero"/></clipPath><clipPath id="9767fdfd51"><path d="M 1089.15625 797.449219 L 1094 797.449219 L 1094 799.765625 L 1089.15625 799.765625 Z M 1089.15625 797.449219 " clip-rule="nonzero"/></clipPath></defs><rect x="-144" width="1728" fill="#ffffff" y="-80.999999" height="971.999992" fill-opacity="1"/><g clip-path="url(#fffa47f223)"><path fill="#ffffff" d="M 749.429688 10.667969 C 749.371094 10.742188 749.328125 11.648438 749.328125 12.667969 C 749.328125 14.402344 749.34375 14.515625 749.621094 14.515625 C 749.910156 14.515625 749.925781 14.421875 749.882812 12.589844 C 749.835938 10.816406 749.722656 10.308594 749.429688 10.667969 Z M 749.429688 10.667969 " fill-opacity="1" fill-rule="nonzero"/></g><g clip-path="url(#c770013023)"><path fill="#ffffff" d="M 748.222656 11.140625 C 748.09375 11.421875 748.398438 11.761719 748.660156 11.628906 C 748.789062 11.554688 748.890625 11.382812 748.890625 11.214844 C 748.890625 10.894531 748.382812 10.816406 748.222656 11.140625 Z M 748.222656 11.140625 " fill-opacity="1" fill-rule="nonzero"/></g><g clip-path="url(#ee36e392ed)"><path fill="#ffffff" d="M 741.914062 11.308594 C 741.914062 11.402344 742.074219 11.496094 742.277344 11.496094 C 742.667969 11.496094 742.683594 11.589844 742.699219 13.476562 C 742.714844 14.269531 742.757812 14.421875 743.003906 14.476562 C 743.28125 14.535156 743.292969 14.421875 743.292969 13.0625 C 743.292969 11.589844 743.292969 11.589844 743.703125 11.535156 C 744.53125 11.402344 744.050781 11.121094 743.003906 11.121094 C 742.378906 11.121094 741.914062 11.195312 741.914062 11.308594 Z M 741.914062 11.308594 " fill-opacity="1" fill-rule="nonzero"/></g><g clip-path="url(#c0aee0331d)"><path fill="#ffffff" d="M 757.179688 11.703125 C 757.179688 11.835938 757.0625 12.042969 756.933594 12.175781 C 756.683594 12.421875 756.683594 12.421875 756.933594 12.441406 C 757.121094 12.441406 757.179688 12.609375 757.179688 13.195312 C 757.179688 13.703125 757.28125 14.082031 757.46875 14.328125 C 757.777344 14.722656 757.890625 14.761719 758.253906 14.589844 C 758.605469 14.421875 758.53125 14.140625 758.167969 14.195312 C 757.863281 14.234375 757.835938 14.140625 757.789062 13.328125 C 757.746094 12.476562 757.761719 12.441406 758.109375 12.441406 C 758.328125 12.441406 758.488281 12.347656 758.488281 12.253906 C 758.488281 12.140625 758.328125 12.0625 758.125 12.0625 C 757.890625 12.0625 757.761719 11.949219 757.761719 11.78125 C 757.761719 11.628906 757.628906 11.496094 757.46875 11.496094 C 757.3125 11.496094 757.179688 11.589844 757.179688 11.703125 Z M 757.179688 11.703125 " fill-opacity="1" fill-rule="nonzero"/></g><g clip-path="url(#3e81632b1d)"><path fill="#ffffff" d="M 744.386719 13.289062 C 744.386719 14.382812 744.414062 14.515625 744.675781 14.515625 C 744.921875 14.515625 744.964844 14.382812 744.964844 13.6875 C 744.964844 12.855469 745.199219 12.382812 745.546875 12.476562 C 745.648438 12.515625 745.765625 12.421875 745.796875 12.289062 C 745.882812 12.007812 745.636719 11.988281 745.242188 12.253906 C 745.054688 12.382812 744.964844 12.382812 744.964844 12.253906 C 744.964844 12.15625 744.835938 12.0625 744.675781 12.0625 C 744.414062 12.0625 744.386719 12.195312 744.386719 13.289062 Z M 744.386719 13.289062 " fill-opacity="1" fill-rule="nonzero"/></g><g clip-path="url(#16d2505e09)"><path fill="#ffffff" d="M 746.320312 12.195312 C 746.117188 12.289062 746.058594 12.816406 746.246094 12.816406 C 746.304688 12.816406 746.433594 12.722656 746.523438 12.609375 C 746.742188 12.328125 747.148438 12.535156 747.148438 12.914062 C 747.148438 13.082031 747.015625 13.195312 746.796875 13.195312 C 746.332031 13.195312 745.984375 13.648438 746.085938 14.121094 C 746.171875 14.574219 746.507812 14.761719 746.84375 14.535156 C 746.988281 14.421875 747.175781 14.421875 747.292969 14.515625 C 747.410156 14.609375 747.554688 14.628906 747.613281 14.589844 C 747.800781 14.441406 747.742188 12.535156 747.554688 12.289062 C 747.378906 12.0625 746.652344 12.007812 746.320312 12.195312 Z M 747.148438 13.835938 C 747.148438 13.988281 747.074219 14.175781 746.988281 14.25 C 746.785156 14.402344 746.507812 14.042969 746.625 13.78125 C 746.769531 13.476562 747.148438 13.535156 747.148438 13.835938 Z M 747.148438 13.835938 " fill-opacity="1" fill-rule="nonzero"/></g><g clip-path="url(#d78b897d63)"><path fill="#ffffff" d="M 748.3125 13.269531 C 748.3125 14.347656 748.339844 14.515625 748.574219 14.515625 C 748.804688 14.515625 748.835938 14.347656 748.835938 13.347656 C 748.820312 12.363281 748.777344 12.15625 748.574219 12.101562 C 748.339844 12.042969 748.3125 12.195312 748.3125 13.269531 Z M 748.3125 13.269531 " fill-opacity="1" fill-rule="nonzero"/></g><g clip-path="url(#70697931f4)"><path fill="#ffffff" d="M 750.316406 12.15625 C 750.273438 12.214844 750.375 12.761719 750.550781 13.382812 C 750.796875 14.328125 750.914062 14.515625 751.191406 14.515625 C 751.4375 14.515625 751.597656 14.328125 751.800781 13.703125 C 752.179688 12.648438 752.179688 12.0625 751.800781 12.0625 C 751.597656 12.0625 751.507812 12.195312 751.507812 12.476562 C 751.507812 13.082031 751.347656 13.761719 751.21875 13.761719 C 751.160156 13.761719 751.074219 13.496094 751.015625 13.15625 C 750.882812 12.328125 750.550781 11.855469 750.316406 12.15625 Z M 750.316406 12.15625 " fill-opacity="1" fill-rule="nonzero"/></g><g clip-path="url(#5dd3d36859)"><path fill="#ffffff" d="M 752.761719 12.421875 C 752.367188 12.988281 752.5 14.15625 752.992188 14.476562 C 753.398438 14.722656 754.125 14.609375 754.125 14.289062 C 754.125 14.195312 753.9375 14.15625 753.703125 14.234375 C 753.355469 14.328125 753.238281 14.269531 753.109375 13.96875 C 752.976562 13.609375 752.992188 13.574219 753.3125 13.574219 C 753.910156 13.574219 754.125 13.363281 754.125 12.816406 C 754.125 12.007812 753.226562 11.742188 752.761719 12.421875 Z M 753.617188 12.835938 C 753.617188 12.988281 753.472656 13.121094 753.28125 13.15625 C 752.976562 13.214844 752.964844 13.175781 753.109375 12.816406 C 753.28125 12.382812 753.617188 12.402344 753.617188 12.835938 Z M 753.617188 12.835938 " fill-opacity="1" fill-rule="nonzero"/></g><g clip-path="url(#95a52607fb)"><path fill="#ffffff" d="M 754.679688 13.308594 C 754.722656 14.175781 754.796875 14.515625 754.925781 14.515625 C 755.058594 14.515625 755.144531 14.234375 755.171875 13.648438 C 755.203125 13.042969 755.304688 12.6875 755.480469 12.554688 C 755.84375 12.253906 756.015625 12.703125 755.914062 13.703125 C 755.84375 14.441406 755.855469 14.515625 756.148438 14.515625 C 756.421875 14.515625 756.453125 14.402344 756.453125 13.496094 C 756.453125 12.914062 756.378906 12.402344 756.277344 12.289062 C 756.175781 12.195312 755.769531 12.101562 755.363281 12.101562 L 754.636719 12.101562 Z M 754.679688 13.308594 " fill-opacity="1" fill-rule="nonzero"/></g><g clip-path="url(#1edb936f45)"><path fill="#ffffff" d="M 758.894531 13.234375 C 758.96875 14.496094 759.113281 14.78125 759.578125 14.589844 C 759.738281 14.535156 760.042969 14.496094 760.277344 14.496094 C 760.667969 14.515625 760.667969 14.515625 760.667969 13.289062 C 760.667969 12.195312 760.640625 12.0625 760.378906 12.0625 C 760.117188 12.0625 760.085938 12.195312 760.085938 13.082031 C 760.085938 13.78125 760.03125 14.140625 759.882812 14.195312 C 759.550781 14.363281 759.359375 13.914062 759.359375 12.96875 C 759.359375 12.214844 759.316406 12.0625 759.097656 12.0625 C 758.867188 12.0625 758.835938 12.195312 758.894531 13.234375 Z M 758.894531 13.234375 " fill-opacity="1" fill-rule="nonzero"/></g><g clip-path="url(#ab31e1de2a)"><path fill="#ffffff" d="M 761.234375 12.195312 C 761.222656 12.289062 761.222656 12.816406 761.222656 13.382812 C 761.222656 14.195312 761.265625 14.441406 761.453125 14.476562 C 761.644531 14.535156 761.6875 14.363281 761.6875 13.6875 C 761.6875 13.027344 761.746094 12.78125 761.976562 12.628906 C 762.136719 12.515625 762.339844 12.476562 762.414062 12.535156 C 762.5 12.589844 762.558594 12.515625 762.558594 12.363281 C 762.558594 12.007812 762.253906 11.96875 761.992188 12.289062 C 761.832031 12.476562 761.789062 12.476562 761.730469 12.289062 C 761.65625 12.042969 761.265625 11.96875 761.234375 12.195312 Z M 761.234375 12.195312 " fill-opacity="1" fill-rule="nonzero"/></g><g clip-path="url(#4b9264d345)"><path fill="#ffffff" d="M 763.140625 12.441406 C 762.851562 12.816406 762.761719 13.667969 762.964844 14.0625 C 763.273438 14.667969 764.449219 14.855469 764.449219 14.308594 C 764.449219 14.195312 764.320312 14.15625 764.160156 14.234375 C 763.851562 14.363281 763.429688 14.0625 763.429688 13.742188 C 763.429688 13.648438 763.5625 13.574219 763.738281 13.574219 C 764.449219 13.574219 764.84375 12.835938 764.421875 12.289062 C 764.144531 11.929688 763.460938 12.027344 763.140625 12.441406 Z M 764.011719 12.722656 C 764.011719 13.027344 763.621094 13.328125 763.476562 13.140625 C 763.429688 13.0625 763.429688 12.894531 763.476562 12.722656 C 763.589844 12.347656 764.011719 12.347656 764.011719 12.722656 Z M 764.011719 12.722656 " fill-opacity="1" fill-rule="nonzero"/></g><g clip-path="url(#7b002b16e4)"><path fill="#22310f" d="M 737.226562 14.617188 L 737.265625 14.617188 L 737.265625 14.621094 L 737.320312 14.621094 L 737.324219 14.625 L 737.382812 14.625 L 737.386719 14.628906 L 737.480469 14.628906 L 737.5 14.632812 L 737.597656 14.632812 C 737.632812 14.632812 737.664062 14.632812 737.699219 14.632812 L 737.722656 14.628906 L 737.710938 14.617188 L 737.703125 14.605469 L 737.679688 14.582031 L 737.671875 14.570312 L 737.660156 14.5625 L 737.648438 14.550781 L 737.640625 14.539062 L 737.628906 14.527344 L 737.613281 14.507812 L 737.597656 14.492188 L 737.589844 14.480469 L 737.578125 14.46875 L 737.566406 14.460938 L 737.566406 14.457031 L 737.546875 14.4375 L 737.539062 14.425781 L 737.515625 14.402344 L 737.507812 14.390625 L 737.496094 14.378906 L 737.488281 14.367188 L 737.484375 14.367188 L 737.476562 14.355469 L 737.464844 14.347656 L 737.464844 14.34375 L 737.445312 14.324219 L 737.4375 14.3125 L 737.433594 14.3125 L 737.425781 14.300781 L 737.421875 14.296875 L 737.40625 14.277344 L 737.394531 14.265625 L 737.386719 14.253906 L 737.355469 14.222656 L 737.355469 14.21875 L 737.34375 14.210938 L 737.34375 14.207031 L 737.324219 14.1875 L 737.316406 14.175781 L 737.3125 14.175781 L 737.296875 14.152344 L 737.292969 14.152344 L 737.285156 14.140625 L 737.273438 14.128906 L 737.265625 14.117188 L 737.253906 14.109375 L 737.253906 14.105469 L 737.234375 14.085938 L 737.234375 14.082031 L 737.226562 14.074219 L 737.222656 14.074219 L 737.214844 14.0625 L 737.203125 14.050781 L 737.195312 14.039062 L 737.183594 14.027344 L 737.175781 14.015625 L 737.171875 14.015625 L 737.15625 13.992188 L 737.152344 13.992188 L 737.144531 13.984375 L 737.144531 13.980469 L 737.132812 13.972656 L 737.132812 13.96875 L 737.125 13.960938 L 737.125 13.957031 L 737.113281 13.949219 L 737.105469 13.9375 L 737.09375 13.925781 L 737.085938 13.914062 L 737.082031 13.914062 L 737.074219 13.902344 L 736.789062 13.578125 L 736.632812 13.605469 C 736.617188 13.609375 736.605469 13.605469 736.597656 13.59375 L 736.265625 13.1875 L 736.242188 13.1875 C 736.191406 13.242188 736.140625 13.300781 736.089844 13.355469 C 736.035156 13.414062 735.976562 13.476562 735.921875 13.527344 C 735.90625 13.542969 735.890625 13.554688 735.882812 13.566406 C 735.890625 13.578125 735.902344 13.59375 735.914062 13.609375 C 735.929688 13.628906 735.945312 13.652344 735.964844 13.671875 L 735.96875 13.671875 L 736.097656 13.683594 C 736.105469 13.683594 736.113281 13.6875 736.121094 13.691406 L 736.363281 13.941406 L 736.480469 13.925781 C 736.492188 13.925781 736.5 13.929688 736.507812 13.933594 C 736.738281 14.152344 736.988281 14.414062 737.226562 14.617188 M 736.035156 11.402344 C 736.109375 11.402344 736.183594 11.433594 736.234375 11.484375 C 736.285156 11.535156 736.316406 11.605469 736.316406 11.683594 C 736.316406 11.757812 736.285156 11.828125 736.234375 11.878906 C 736.183594 11.929688 736.109375 11.960938 736.035156 11.960938 C 735.957031 11.960938 735.886719 11.929688 735.832031 11.878906 C 735.785156 11.828125 735.75 11.757812 735.75 11.683594 C 735.75 11.605469 735.785156 11.535156 735.832031 11.484375 C 735.886719 11.433594 735.957031 11.402344 736.035156 11.402344 Z M 735.90625 12.929688 L 735.902344 12.929688 C 735.886719 12.894531 735.867188 12.859375 735.847656 12.824219 C 735.773438 12.683594 735.703125 12.546875 735.570312 12.421875 L 735.542969 12.398438 C 735.515625 12.371094 735.503906 12.359375 735.5 12.359375 C 735.496094 12.359375 735.484375 12.367188 735.460938 12.378906 C 735.445312 12.386719 735.421875 12.398438 735.398438 12.410156 C 735.265625 12.476562 735.144531 12.535156 735.050781 12.613281 C 734.960938 12.691406 734.886719 12.785156 734.847656 12.925781 C 734.804688 13.0625 734.757812 13.167969 734.703125 13.269531 C 734.644531 13.367188 734.578125 13.464844 734.5 13.574219 C 734.472656 13.617188 734.441406 13.660156 734.414062 13.703125 C 734.28125 13.902344 734.164062 13.988281 734.042969 14.078125 L 734.039062 14.078125 C 733.957031 14.136719 733.875 14.199219 733.785156 14.296875 L 733.78125 14.300781 C 733.722656 14.363281 733.675781 14.414062 733.636719 14.46875 C 733.609375 14.507812 733.582031 14.554688 733.554688 14.609375 L 733.644531 14.605469 C 733.695312 14.605469 733.742188 14.605469 733.789062 14.605469 C 734.070312 14.605469 734.347656 14.613281 734.625 14.625 C 734.96875 14.636719 735.308594 14.652344 735.652344 14.644531 L 735.746094 14.644531 C 735.820312 14.640625 735.894531 14.640625 735.96875 14.636719 C 736.105469 14.628906 736.214844 14.613281 736.3125 14.601562 C 736.523438 14.578125 736.691406 14.558594 737.011719 14.59375 C 737.046875 14.597656 737.082031 14.601562 737.113281 14.605469 C 736.898438 14.414062 736.683594 14.191406 736.472656 13.992188 L 736.355469 14.007812 C 736.34375 14.007812 736.332031 14.003906 736.328125 13.996094 L 736.082031 13.746094 L 735.960938 13.734375 L 735.953125 13.734375 L 735.941406 13.730469 C 735.933594 13.726562 735.929688 13.726562 735.925781 13.722656 C 735.921875 13.722656 735.921875 13.71875 735.917969 13.714844 C 735.898438 13.695312 735.878906 13.671875 735.859375 13.648438 C 735.839844 13.625 735.824219 13.601562 735.808594 13.574219 C 735.800781 13.5625 735.804688 13.542969 735.816406 13.535156 L 735.816406 13.53125 C 735.828125 13.523438 735.847656 13.507812 735.875 13.484375 C 735.929688 13.433594 735.984375 13.375 736.039062 13.3125 C 736.082031 13.269531 736.121094 13.222656 736.160156 13.179688 L 736.082031 13.171875 C 736.074219 13.171875 736.066406 13.167969 736.058594 13.160156 C 735.996094 13.085938 735.949219 13.007812 735.90625 12.929688 Z M 736.378906 11.292969 C 736.390625 11.28125 736.410156 11.28125 736.425781 11.292969 C 736.4375 11.304688 736.4375 11.324219 736.425781 11.335938 L 736.34375 11.421875 C 736.328125 11.433594 736.308594 11.433594 736.292969 11.421875 C 736.28125 11.410156 736.28125 11.390625 736.292969 11.375 Z M 736.554688 11.648438 C 736.574219 11.648438 736.585938 11.664062 736.585938 11.683594 C 736.585938 11.699219 736.574219 11.714844 736.554688 11.714844 L 736.4375 11.714844 C 736.417969 11.714844 736.402344 11.699219 736.402344 11.683594 C 736.402344 11.664062 736.417969 11.648438 736.4375 11.648438 Z M 736.425781 12.027344 C 736.4375 12.039062 736.4375 12.0625 736.425781 12.074219 C 736.410156 12.085938 736.390625 12.085938 736.378906 12.070312 L 736.292969 11.988281 C 736.28125 11.976562 736.28125 11.957031 736.292969 11.941406 C 736.308594 11.929688 736.328125 11.929688 736.34375 11.945312 Z M 736.066406 12.203125 C 736.066406 12.21875 736.050781 12.234375 736.035156 12.234375 C 736.015625 12.234375 736 12.21875 736 12.203125 L 736 12.082031 C 736 12.066406 736.015625 12.050781 736.035156 12.050781 C 736.050781 12.050781 736.066406 12.066406 736.066406 12.082031 Z M 735.6875 12.070312 C 735.675781 12.085938 735.65625 12.085938 735.640625 12.074219 C 735.628906 12.0625 735.628906 12.039062 735.640625 12.027344 L 735.726562 11.945312 C 735.738281 11.929688 735.757812 11.929688 735.773438 11.941406 C 735.785156 11.957031 735.785156 11.976562 735.773438 11.988281 Z M 735.511719 11.714844 C 735.492188 11.714844 735.480469 11.699219 735.480469 11.683594 C 735.480469 11.664062 735.492188 11.648438 735.511719 11.648438 L 735.632812 11.648438 C 735.648438 11.648438 735.664062 11.664062 735.664062 11.683594 C 735.664062 11.699219 735.648438 11.714844 735.632812 11.714844 Z M 735.640625 11.335938 C 735.628906 11.324219 735.628906 11.304688 735.640625 11.292969 C 735.65625 11.28125 735.675781 11.28125 735.6875 11.292969 L 735.773438 11.375 C 735.785156 11.390625 735.785156 11.410156 735.773438 11.421875 C 735.757812 11.433594 735.738281 11.433594 735.726562 11.421875 Z M 736 11.164062 C 736 11.144531 736.015625 11.128906 736.035156 11.128906 C 736.050781 11.128906 736.066406 11.144531 736.066406 11.164062 L 736.066406 11.28125 C 736.066406 11.296875 736.050781 11.3125 736.035156 11.3125 C 736.015625 11.3125 736 11.296875 736 11.28125 Z M 737.816406 14.632812 L 738.074219 14.632812 C 738.28125 14.632812 738.515625 14.597656 738.75 14.566406 C 739.097656 14.519531 739.4375 14.472656 739.675781 14.53125 L 739.675781 14.535156 L 739.679688 14.535156 C 739.664062 14.5 739.648438 14.46875 739.636719 14.433594 C 739.59375 14.339844 739.554688 14.246094 739.472656 14.179688 C 739.4375 14.152344 739.34375 14.097656 739.234375 14.03125 C 738.976562 13.875 738.617188 13.65625 738.542969 13.515625 C 738.511719 13.449219 738.488281 13.386719 738.464844 13.335938 C 738.40625 13.183594 738.367188 13.085938 738.167969 13.054688 C 738.121094 13.046875 738.066406 13.007812 738.011719 12.953125 C 737.929688 12.875 737.847656 12.765625 737.8125 12.71875 C 737.785156 12.675781 737.757812 12.640625 737.738281 12.605469 C 737.65625 12.484375 737.625 12.433594 737.425781 12.335938 C 737.410156 12.328125 737.40625 12.308594 737.414062 12.292969 C 737.421875 12.277344 737.441406 12.269531 737.457031 12.28125 C 737.667969 12.386719 737.707031 12.4375 737.792969 12.570312 C 737.8125 12.601562 737.835938 12.636719 737.867188 12.683594 C 737.902344 12.726562 737.980469 12.832031 738.058594 12.910156 C 738.105469 12.953125 738.148438 12.988281 738.175781 12.992188 C 738.417969 13.027344 738.460938 13.140625 738.527344 13.3125 C 738.546875 13.363281 738.570312 13.425781 738.605469 13.488281 C 738.667969 13.609375 739.019531 13.824219 739.269531 13.976562 C 739.382812 14.042969 739.476562 14.101562 739.515625 14.132812 C 739.609375 14.210938 739.652344 14.308594 739.695312 14.410156 C 739.71875 14.460938 739.738281 14.507812 739.765625 14.554688 C 739.960938 14.597656 740.085938 14.59375 740.269531 14.585938 C 740.3125 14.585938 740.359375 14.582031 740.414062 14.582031 C 740.578125 14.578125 740.726562 14.59375 740.871094 14.609375 C 740.972656 14.617188 741.070312 14.628906 741.175781 14.632812 C 741.09375 14.523438 741.042969 14.40625 740.996094 14.292969 C 740.929688 14.140625 740.867188 13.992188 740.734375 13.886719 C 740.570312 13.753906 740.398438 13.695312 740.242188 13.636719 C 739.964844 13.539062 739.71875 13.453125 739.570312 13.015625 L 739.570312 13.011719 C 739.53125 12.875 739.488281 12.890625 739.445312 12.902344 C 739.386719 12.925781 739.324219 12.945312 739.269531 12.835938 C 739.226562 12.753906 739.191406 12.679688 739.160156 12.609375 C 739.101562 12.480469 739.042969 12.355469 738.953125 12.210938 C 738.878906 12.105469 738.832031 12.105469 738.761719 12.105469 C 738.730469 12.105469 738.699219 12.105469 738.65625 12.097656 C 738.589844 12.085938 738.503906 12.023438 738.421875 11.941406 C 738.292969 11.816406 738.164062 11.648438 738.109375 11.574219 C 738.0625 11.507812 738.023438 11.445312 737.992188 11.394531 C 737.863281 11.203125 737.808594 11.125 737.515625 10.972656 C 737.433594 11.054688 737.34375 11.132812 737.253906 11.207031 C 737.078125 11.351562 736.90625 11.5 736.816406 11.691406 C 736.703125 11.941406 736.605469 12.125 736.488281 12.296875 C 736.371094 12.46875 736.230469 12.632812 736.039062 12.851562 C 736.011719 12.882812 735.992188 12.902344 735.976562 12.917969 C 736.011719 12.984375 736.054688 13.050781 736.101562 13.109375 L 736.230469 13.121094 L 736.285156 13.128906 C 736.292969 13.128906 736.300781 13.132812 736.308594 13.140625 L 736.636719 13.539062 L 736.796875 13.515625 L 736.800781 13.515625 L 736.800781 13.511719 L 736.804688 13.511719 L 736.804688 13.515625 L 736.820312 13.515625 L 736.820312 13.519531 L 736.824219 13.519531 L 736.824219 13.523438 L 736.828125 13.523438 L 736.828125 13.527344 L 736.835938 13.53125 L 736.835938 13.535156 L 736.847656 13.546875 L 736.855469 13.558594 L 736.863281 13.5625 L 736.871094 13.574219 L 736.878906 13.582031 L 736.898438 13.605469 L 736.933594 13.640625 L 736.933594 13.644531 L 736.945312 13.660156 L 736.960938 13.675781 L 737.011719 13.730469 L 737.027344 13.75 L 737.050781 13.773438 L 737.050781 13.777344 L 737.070312 13.800781 L 737.085938 13.816406 L 737.085938 13.820312 L 737.089844 13.824219 L 737.09375 13.824219 L 737.09375 13.828125 L 737.097656 13.828125 L 737.105469 13.835938 L 737.105469 13.839844 L 737.125 13.859375 L 737.125 13.863281 L 737.136719 13.871094 L 737.136719 13.875 L 737.144531 13.886719 L 737.15625 13.894531 L 737.15625 13.898438 L 737.164062 13.90625 L 737.167969 13.90625 L 737.183594 13.929688 L 737.1875 13.929688 L 737.195312 13.941406 L 737.207031 13.953125 L 737.214844 13.964844 L 737.226562 13.976562 L 737.234375 13.988281 L 737.246094 13.996094 L 737.246094 14 L 737.265625 14.019531 L 737.265625 14.023438 L 737.277344 14.03125 L 737.277344 14.035156 L 737.296875 14.054688 L 737.304688 14.066406 L 737.308594 14.066406 L 737.324219 14.089844 L 737.328125 14.089844 L 737.335938 14.101562 L 737.347656 14.113281 L 737.355469 14.125 L 737.386719 14.15625 L 737.386719 14.160156 L 737.398438 14.167969 L 737.40625 14.179688 L 737.417969 14.191406 L 737.425781 14.203125 L 737.4375 14.214844 L 737.445312 14.226562 L 737.449219 14.226562 L 737.457031 14.238281 L 737.46875 14.25 L 737.476562 14.261719 L 737.488281 14.269531 L 737.488281 14.273438 L 737.519531 14.304688 L 737.527344 14.316406 L 737.539062 14.328125 L 737.546875 14.339844 L 737.570312 14.363281 L 737.578125 14.375 L 737.589844 14.382812 L 737.589844 14.386719 L 737.621094 14.417969 L 737.640625 14.441406 L 737.648438 14.453125 L 737.660156 14.464844 L 737.671875 14.472656 L 737.679688 14.484375 L 737.691406 14.496094 L 737.699219 14.507812 L 737.722656 14.53125 L 737.730469 14.542969 L 737.773438 14.585938 L 737.773438 14.589844 L 737.777344 14.589844 L 737.777344 14.59375 L 737.78125 14.59375 L 737.78125 14.597656 L 737.785156 14.597656 L 737.785156 14.601562 L 737.789062 14.601562 L 737.789062 14.605469 L 737.792969 14.605469 L 737.792969 14.609375 L 737.796875 14.609375 L 737.796875 14.613281 L 737.800781 14.613281 L 737.800781 14.617188 L 737.804688 14.617188 L 737.804688 14.621094 L 737.808594 14.621094 L 737.808594 14.625 L 737.8125 14.625 L 737.8125 14.628906 L 737.816406 14.628906 Z M 737.816406 14.632812 " fill-opacity="1" fill-rule="evenodd"/></g><g clip-path="url(#73b0baa5e6)"><path fill="#ffffff" d="M 347.757812 724.320312 C 347.699219 724.394531 347.65625 725.300781 347.65625 726.320312 C 347.65625 728.054688 347.667969 728.167969 347.945312 728.167969 C 348.238281 728.167969 348.25 728.074219 348.207031 726.246094 C 348.164062 724.472656 348.046875 723.960938 347.757812 724.320312 Z M 347.757812 724.320312 " fill-opacity="1" fill-rule="nonzero"/></g><g clip-path="url(#75031661f2)"><path fill="#ffffff" d="M 346.550781 724.792969 C 346.417969 725.074219 346.722656 725.414062 346.984375 725.28125 C 347.117188 725.207031 347.21875 725.039062 347.21875 724.867188 C 347.21875 724.546875 346.710938 724.472656 346.550781 724.792969 Z M 346.550781 724.792969 " fill-opacity="1" fill-rule="nonzero"/></g><g clip-path="url(#9b5ba35750)"><path fill="#ffffff" d="M 340.238281 724.960938 C 340.238281 725.054688 340.398438 725.148438 340.601562 725.148438 C 340.996094 725.148438 341.011719 725.246094 341.023438 727.132812 C 341.039062 727.925781 341.082031 728.074219 341.332031 728.132812 C 341.605469 728.1875 341.621094 728.074219 341.621094 726.714844 C 341.621094 725.246094 341.621094 725.246094 342.027344 725.1875 C 342.855469 725.054688 342.378906 724.773438 341.332031 724.773438 C 340.703125 724.773438 340.238281 724.847656 340.238281 724.960938 Z M 340.238281 724.960938 " fill-opacity="1" fill-rule="nonzero"/></g><g clip-path="url(#ef37c374d6)"><path fill="#ffffff" d="M 355.507812 725.359375 C 355.507812 725.488281 355.390625 725.699219 355.257812 725.828125 C 355.011719 726.074219 355.011719 726.074219 355.257812 726.09375 C 355.449219 726.09375 355.507812 726.261719 355.507812 726.847656 C 355.507812 727.359375 355.609375 727.734375 355.796875 727.980469 C 356.101562 728.375 356.21875 728.414062 356.582031 728.246094 C 356.929688 728.074219 356.859375 727.792969 356.496094 727.847656 C 356.1875 727.886719 356.160156 727.792969 356.117188 726.980469 C 356.074219 726.132812 356.085938 726.09375 356.4375 726.09375 C 356.65625 726.09375 356.816406 726 356.816406 725.90625 C 356.816406 725.792969 356.65625 725.714844 356.449219 725.714844 C 356.21875 725.714844 356.085938 725.601562 356.085938 725.433594 C 356.085938 725.28125 355.957031 725.148438 355.796875 725.148438 C 355.636719 725.148438 355.507812 725.246094 355.507812 725.359375 Z M 355.507812 725.359375 " fill-opacity="1" fill-rule="nonzero"/></g><g clip-path="url(#430a1ef37d)"><path fill="#ffffff" d="M 342.710938 726.941406 C 342.710938 728.035156 342.742188 728.167969 343.003906 728.167969 C 343.25 728.167969 343.292969 728.035156 343.292969 727.339844 C 343.292969 726.507812 343.527344 726.035156 343.875 726.132812 C 343.976562 726.167969 344.09375 726.074219 344.121094 725.941406 C 344.210938 725.660156 343.960938 725.640625 343.570312 725.90625 C 343.378906 726.035156 343.292969 726.035156 343.292969 725.90625 C 343.292969 725.8125 343.164062 725.714844 343.003906 725.714844 C 342.742188 725.714844 342.710938 725.847656 342.710938 726.941406 Z M 342.710938 726.941406 " fill-opacity="1" fill-rule="nonzero"/></g><g clip-path="url(#6e4090f6bb)"><path fill="#ffffff" d="M 344.644531 725.847656 C 344.441406 725.941406 344.382812 726.472656 344.574219 726.472656 C 344.628906 726.472656 344.761719 726.375 344.847656 726.261719 C 345.066406 725.980469 345.472656 726.1875 345.472656 726.566406 C 345.472656 726.734375 345.34375 726.847656 345.125 726.847656 C 344.660156 726.847656 344.3125 727.300781 344.414062 727.773438 C 344.5 728.226562 344.835938 728.414062 345.167969 728.1875 C 345.3125 728.074219 345.503906 728.074219 345.621094 728.167969 C 345.734375 728.261719 345.882812 728.28125 345.9375 728.246094 C 346.128906 728.09375 346.070312 726.1875 345.882812 725.941406 C 345.707031 725.714844 344.980469 725.660156 344.644531 725.847656 Z M 345.472656 727.488281 C 345.472656 727.640625 345.402344 727.828125 345.3125 727.90625 C 345.109375 728.054688 344.835938 727.699219 344.949219 727.433594 C 345.097656 727.132812 345.472656 727.1875 345.472656 727.488281 Z M 345.472656 727.488281 " fill-opacity="1" fill-rule="nonzero"/></g><g clip-path="url(#ba51a82106)"><path fill="#ffffff" d="M 346.636719 726.925781 C 346.636719 728 346.667969 728.167969 346.898438 728.167969 C 347.132812 728.167969 347.160156 728 347.160156 727 C 347.144531 726.019531 347.101562 725.8125 346.898438 725.753906 C 346.667969 725.699219 346.636719 725.847656 346.636719 726.925781 Z M 346.636719 726.925781 " fill-opacity="1" fill-rule="nonzero"/></g><g clip-path="url(#3f1971d5b1)"><path fill="#ffffff" d="M 348.644531 725.8125 C 348.601562 725.867188 348.703125 726.414062 348.875 727.035156 C 349.125 727.980469 349.238281 728.167969 349.515625 728.167969 C 349.761719 728.167969 349.921875 727.980469 350.125 727.359375 C 350.503906 726.300781 350.503906 725.714844 350.125 725.714844 C 349.921875 725.714844 349.835938 725.847656 349.835938 726.132812 C 349.835938 726.734375 349.675781 727.414062 349.542969 727.414062 C 349.488281 727.414062 349.398438 727.148438 349.339844 726.8125 C 349.210938 725.980469 348.875 725.507812 348.644531 725.8125 Z M 348.644531 725.8125 " fill-opacity="1" fill-rule="nonzero"/></g><g clip-path="url(#9c14f07a03)"><path fill="#ffffff" d="M 351.085938 726.074219 C 350.695312 726.640625 350.824219 727.8125 351.320312 728.132812 C 351.726562 728.375 352.453125 728.261719 352.453125 727.941406 C 352.453125 727.847656 352.265625 727.8125 352.03125 727.886719 C 351.683594 727.980469 351.566406 727.925781 351.433594 727.621094 C 351.304688 727.261719 351.320312 727.226562 351.636719 727.226562 C 352.234375 727.226562 352.453125 727.019531 352.453125 726.472656 C 352.453125 725.660156 351.550781 725.394531 351.085938 726.074219 Z M 351.945312 726.488281 C 351.945312 726.640625 351.796875 726.773438 351.609375 726.8125 C 351.304688 726.867188 351.289062 726.828125 351.433594 726.472656 C 351.609375 726.035156 351.945312 726.054688 351.945312 726.488281 Z M 351.945312 726.488281 " fill-opacity="1" fill-rule="nonzero"/></g><g clip-path="url(#1083a39a50)"><path fill="#ffffff" d="M 353.003906 726.960938 C 353.050781 727.828125 353.121094 728.167969 353.253906 728.167969 C 353.382812 728.167969 353.46875 727.886719 353.5 727.300781 C 353.527344 726.699219 353.628906 726.339844 353.804688 726.207031 C 354.167969 725.90625 354.34375 726.359375 354.242188 727.359375 C 354.167969 728.09375 354.183594 728.167969 354.472656 728.167969 C 354.75 728.167969 354.777344 728.054688 354.777344 727.148438 C 354.777344 726.566406 354.707031 726.054688 354.605469 725.941406 C 354.503906 725.847656 354.097656 725.753906 353.6875 725.753906 L 352.960938 725.753906 Z M 353.003906 726.960938 " fill-opacity="1" fill-rule="nonzero"/></g><g clip-path="url(#cb021c5782)"><path fill="#ffffff" d="M 357.222656 726.886719 C 357.292969 728.148438 357.441406 728.433594 357.90625 728.246094 C 358.066406 728.1875 358.371094 728.148438 358.601562 728.148438 C 358.996094 728.167969 358.996094 728.167969 358.996094 726.941406 C 358.996094 725.847656 358.964844 725.714844 358.703125 725.714844 C 358.441406 725.714844 358.414062 725.847656 358.414062 726.734375 C 358.414062 727.433594 358.355469 727.792969 358.210938 727.847656 C 357.875 728.019531 357.6875 727.566406 357.6875 726.621094 C 357.6875 725.867188 357.644531 725.714844 357.425781 725.714844 C 357.191406 725.714844 357.164062 725.847656 357.222656 726.886719 Z M 357.222656 726.886719 " fill-opacity="1" fill-rule="nonzero"/></g><g clip-path="url(#cf25ba6fa4)"><path fill="#ffffff" d="M 359.5625 725.847656 C 359.546875 725.941406 359.546875 726.472656 359.546875 727.035156 C 359.546875 727.847656 359.589844 728.09375 359.78125 728.132812 C 359.96875 728.1875 360.011719 728.019531 360.011719 727.339844 C 360.011719 726.679688 360.070312 726.433594 360.304688 726.28125 C 360.464844 726.167969 360.667969 726.132812 360.738281 726.1875 C 360.828125 726.246094 360.886719 726.167969 360.886719 726.019531 C 360.886719 725.660156 360.582031 725.621094 360.320312 725.941406 C 360.160156 726.132812 360.113281 726.132812 360.058594 725.941406 C 359.984375 725.699219 359.589844 725.621094 359.5625 725.847656 Z M 359.5625 725.847656 " fill-opacity="1" fill-rule="nonzero"/></g><g clip-path="url(#b3a97a272d)"><path fill="#ffffff" d="M 361.46875 726.09375 C 361.175781 726.472656 361.089844 727.320312 361.292969 727.714844 C 361.597656 728.320312 362.777344 728.507812 362.777344 727.960938 C 362.777344 727.847656 362.644531 727.8125 362.484375 727.886719 C 362.179688 728.019531 361.757812 727.714844 361.757812 727.394531 C 361.757812 727.300781 361.890625 727.226562 362.0625 727.226562 C 362.777344 727.226562 363.167969 726.488281 362.746094 725.941406 C 362.46875 725.585938 361.785156 725.679688 361.46875 726.09375 Z M 362.339844 726.375 C 362.339844 726.679688 361.945312 726.980469 361.800781 726.792969 C 361.757812 726.714844 361.757812 726.546875 361.800781 726.375 C 361.917969 726 362.339844 726 362.339844 726.375 Z M 362.339844 726.375 " fill-opacity="1" fill-rule="nonzero"/></g><g clip-path="url(#aee72ff7a9)"><path fill="#22310f" d="M 335.550781 728.269531 L 335.578125 728.269531 L 335.582031 728.273438 L 335.632812 728.273438 L 335.636719 728.277344 L 335.699219 728.277344 L 335.703125 728.28125 L 335.789062 728.28125 L 335.792969 728.285156 L 335.921875 728.285156 C 335.957031 728.285156 335.992188 728.285156 336.023438 728.285156 L 336.050781 728.285156 L 336.046875 728.28125 L 336.039062 728.269531 L 335.996094 728.226562 L 335.988281 728.214844 L 335.984375 728.214844 L 335.976562 728.203125 L 335.964844 728.191406 L 335.957031 728.179688 L 335.933594 728.15625 L 335.925781 728.144531 L 335.90625 728.125 L 335.902344 728.125 L 335.894531 728.113281 L 335.882812 728.101562 L 335.875 728.089844 L 335.863281 728.078125 L 335.855469 728.066406 L 335.851562 728.066406 L 335.84375 728.054688 L 335.832031 728.042969 L 335.824219 728.03125 L 335.8125 728.023438 L 335.8125 728.019531 L 335.804688 728.011719 L 335.800781 728.011719 L 335.792969 728 L 335.78125 727.988281 L 335.773438 727.976562 L 335.761719 727.964844 L 335.753906 727.953125 L 335.75 727.953125 L 335.75 727.949219 L 335.730469 727.929688 L 335.722656 727.917969 L 335.710938 727.910156 L 335.710938 727.90625 L 335.691406 727.886719 L 335.691406 727.882812 L 335.683594 727.875 L 335.679688 727.875 L 335.671875 727.863281 L 335.660156 727.851562 L 335.652344 727.839844 L 335.640625 727.828125 L 335.621094 727.804688 L 335.601562 727.785156 L 335.601562 727.78125 L 335.589844 727.773438 L 335.589844 727.769531 L 335.582031 727.761719 L 335.582031 727.757812 L 335.570312 727.75 L 335.5625 727.738281 L 335.558594 727.738281 L 335.550781 727.726562 L 335.539062 727.714844 L 335.53125 727.703125 L 335.519531 727.691406 L 335.511719 727.679688 L 335.480469 727.648438 L 335.480469 727.644531 L 335.460938 727.625 L 335.460938 727.621094 L 335.453125 727.613281 L 335.449219 727.613281 L 335.441406 727.601562 L 335.429688 727.589844 L 335.421875 727.578125 L 335.410156 727.566406 L 335.402344 727.554688 L 335.398438 727.554688 L 335.117188 727.234375 L 334.957031 727.257812 C 334.945312 727.261719 334.933594 727.257812 334.921875 727.246094 L 334.589844 726.84375 L 334.570312 726.839844 C 334.519531 726.898438 334.464844 726.953125 334.417969 727.007812 C 334.359375 727.070312 334.304688 727.128906 334.246094 727.183594 C 334.230469 727.195312 334.21875 727.207031 334.207031 727.21875 C 334.21875 727.234375 334.226562 727.246094 334.238281 727.261719 C 334.253906 727.28125 334.273438 727.304688 334.292969 727.324219 L 334.425781 727.335938 C 334.433594 727.335938 334.441406 727.339844 334.445312 727.34375 L 334.691406 727.59375 L 334.808594 727.578125 C 334.816406 727.578125 334.828125 727.582031 334.835938 727.589844 C 335.066406 727.808594 335.3125 728.066406 335.550781 728.269531 M 334.359375 725.054688 C 334.4375 725.054688 334.507812 725.085938 334.558594 725.136719 C 334.609375 725.1875 334.640625 725.257812 334.640625 725.335938 C 334.640625 725.414062 334.609375 725.480469 334.558594 725.53125 C 334.507812 725.582031 334.4375 725.613281 334.359375 725.613281 C 334.28125 725.613281 334.210938 725.582031 334.160156 725.53125 C 334.109375 725.480469 334.078125 725.410156 334.078125 725.335938 C 334.078125 725.257812 334.109375 725.1875 334.160156 725.136719 C 334.210938 725.085938 334.28125 725.054688 334.359375 725.054688 Z M 334.230469 726.582031 C 334.210938 726.546875 334.195312 726.511719 334.175781 726.476562 C 334.101562 726.335938 334.027344 726.199219 333.894531 726.074219 L 333.867188 726.050781 C 333.839844 726.023438 333.828125 726.015625 333.824219 726.015625 C 333.820312 726.011719 333.808594 726.019531 333.785156 726.03125 C 333.769531 726.039062 333.75 726.050781 333.722656 726.0625 C 333.589844 726.128906 333.472656 726.1875 333.378906 726.265625 C 333.285156 726.34375 333.214844 726.441406 333.171875 726.578125 C 333.132812 726.714844 333.085938 726.820312 333.027344 726.921875 C 332.972656 727.023438 332.90625 727.117188 332.828125 727.230469 C 332.796875 727.269531 332.765625 727.3125 332.742188 727.355469 C 332.609375 727.554688 332.492188 727.640625 332.367188 727.730469 C 332.285156 727.792969 332.199219 727.851562 332.109375 727.949219 L 332.109375 727.953125 C 332.046875 728.019531 332.003906 728.066406 331.964844 728.121094 C 331.933594 728.160156 331.910156 728.207031 331.882812 728.265625 L 331.972656 728.261719 C 332.023438 728.257812 332.070312 728.257812 332.117188 728.257812 C 332.394531 728.257812 332.675781 728.269531 332.953125 728.277344 C 333.292969 728.292969 333.636719 728.304688 333.980469 728.296875 L 334.070312 728.296875 C 334.144531 728.296875 334.222656 728.292969 334.296875 728.289062 C 334.433594 728.28125 334.542969 728.269531 334.640625 728.257812 C 334.847656 728.230469 335.019531 728.210938 335.335938 728.246094 C 335.375 728.25 335.410156 728.253906 335.441406 728.257812 C 335.222656 728.066406 335.007812 727.84375 334.800781 727.644531 L 334.683594 727.660156 C 334.671875 727.664062 334.660156 727.65625 334.652344 727.648438 L 334.40625 727.398438 L 334.285156 727.386719 L 334.277344 727.386719 L 334.265625 727.382812 C 334.261719 727.378906 334.257812 727.378906 334.253906 727.375 C 334.25 727.375 334.246094 727.371094 334.246094 727.371094 C 334.222656 727.347656 334.203125 727.324219 334.183594 727.300781 C 334.167969 727.277344 334.152344 727.253906 334.136719 727.230469 C 334.125 727.214844 334.128906 727.199219 334.140625 727.1875 L 334.144531 727.1875 C 334.15625 727.175781 334.175781 727.160156 334.199219 727.136719 C 334.253906 727.085938 334.308594 727.027344 334.367188 726.964844 C 334.410156 726.921875 334.449219 726.875 334.488281 726.832031 L 334.410156 726.828125 C 334.402344 726.824219 334.390625 726.820312 334.386719 726.816406 C 334.324219 726.738281 334.273438 726.660156 334.230469 726.582031 Z M 334.703125 724.945312 C 334.71875 724.933594 334.738281 724.933594 334.75 724.945312 C 334.765625 724.957031 334.765625 724.976562 334.75 724.992188 L 334.667969 725.074219 C 334.65625 725.085938 334.632812 725.085938 334.621094 725.074219 C 334.609375 725.0625 334.609375 725.042969 334.621094 725.03125 Z M 334.878906 725.304688 C 334.898438 725.304688 334.914062 725.316406 334.914062 725.335938 C 334.914062 725.351562 334.898438 725.367188 334.878906 725.367188 L 334.761719 725.367188 C 334.742188 725.367188 334.726562 725.351562 334.726562 725.335938 C 334.726562 725.316406 334.742188 725.304688 334.761719 725.304688 Z M 334.75 725.679688 C 334.765625 725.691406 334.765625 725.714844 334.75 725.726562 C 334.738281 725.738281 334.71875 725.738281 334.703125 725.726562 L 334.621094 725.640625 C 334.609375 725.628906 334.609375 725.609375 334.621094 725.597656 C 334.632812 725.585938 334.65625 725.585938 334.667969 725.597656 Z M 334.394531 725.855469 C 334.394531 725.871094 334.378906 725.886719 334.359375 725.886719 C 334.339844 725.886719 334.324219 725.871094 334.324219 725.855469 L 334.324219 725.738281 C 334.324219 725.71875 334.339844 725.703125 334.359375 725.703125 C 334.378906 725.703125 334.394531 725.71875 334.394531 725.738281 Z M 334.015625 725.726562 C 334.003906 725.738281 333.980469 725.738281 333.96875 725.726562 C 333.953125 725.714844 333.953125 725.691406 333.96875 725.679688 L 334.050781 725.597656 C 334.0625 725.585938 334.085938 725.585938 334.097656 725.597656 C 334.113281 725.609375 334.113281 725.628906 334.097656 725.640625 Z M 333.839844 725.367188 C 333.820312 725.367188 333.804688 725.351562 333.804688 725.335938 C 333.804688 725.316406 333.820312 725.304688 333.839844 725.304688 L 333.957031 725.304688 C 333.976562 725.304688 333.992188 725.316406 333.992188 725.335938 C 333.992188 725.351562 333.976562 725.367188 333.957031 725.367188 Z M 333.96875 724.992188 C 333.953125 724.976562 333.953125 724.957031 333.96875 724.945312 C 333.980469 724.933594 334.003906 724.933594 334.015625 724.945312 L 334.097656 725.03125 C 334.113281 725.042969 334.113281 725.0625 334.097656 725.074219 C 334.085938 725.085938 334.0625 725.085938 334.050781 725.074219 Z M 334.324219 724.816406 C 334.324219 724.796875 334.339844 724.785156 334.359375 724.785156 C 334.378906 724.785156 334.394531 724.796875 334.394531 724.816406 L 334.394531 724.933594 C 334.394531 724.953125 334.378906 724.964844 334.359375 724.964844 C 334.339844 724.964844 334.324219 724.953125 334.324219 724.933594 Z M 336.144531 728.285156 L 336.402344 728.285156 C 336.605469 728.285156 336.84375 728.253906 337.078125 728.21875 C 337.421875 728.171875 337.761719 728.125 338 728.1875 L 338.003906 728.1875 C 337.988281 728.152344 337.976562 728.121094 337.960938 728.089844 C 337.921875 727.992188 337.882812 727.902344 337.800781 727.835938 C 337.761719 727.804688 337.671875 727.75 337.5625 727.683594 C 337.304688 727.527344 336.941406 727.308594 336.871094 727.167969 C 336.835938 727.101562 336.8125 727.042969 336.792969 726.988281 C 336.734375 726.835938 336.695312 726.738281 336.492188 726.707031 C 336.449219 726.699219 336.394531 726.660156 336.339844 726.605469 C 336.257812 726.527344 336.175781 726.417969 336.140625 726.371094 C 336.109375 726.328125 336.085938 726.292969 336.0625 726.257812 C 335.984375 726.136719 335.949219 726.085938 335.753906 725.988281 C 335.738281 725.980469 335.730469 725.960938 335.738281 725.945312 C 335.746094 725.929688 335.769531 725.925781 335.785156 725.933594 C 335.996094 726.039062 336.03125 726.09375 336.121094 726.226562 C 336.140625 726.253906 336.164062 726.289062 336.195312 726.335938 C 336.226562 726.382812 336.308594 726.484375 336.386719 726.5625 C 336.429688 726.605469 336.476562 726.640625 336.503906 726.644531 C 336.742188 726.679688 336.785156 726.792969 336.855469 726.964844 C 336.875 727.019531 336.898438 727.078125 336.929688 727.140625 C 336.992188 727.265625 337.347656 727.476562 337.597656 727.628906 C 337.710938 727.699219 337.800781 727.753906 337.84375 727.785156 C 337.9375 727.863281 337.980469 727.960938 338.023438 728.0625 C 338.042969 728.113281 338.066406 728.160156 338.089844 728.207031 C 338.289062 728.25 338.410156 728.246094 338.59375 728.238281 C 338.640625 728.238281 338.6875 728.238281 338.738281 728.234375 C 338.90625 728.230469 339.050781 728.246094 339.199219 728.261719 C 339.296875 728.269531 339.398438 728.28125 339.5 728.285156 C 339.421875 728.175781 339.371094 728.0625 339.320312 727.949219 C 339.257812 727.792969 339.195312 727.644531 339.058594 727.539062 C 338.894531 727.40625 338.726562 727.347656 338.570312 727.292969 C 338.289062 727.195312 338.042969 727.105469 337.894531 726.671875 L 337.894531 726.667969 C 337.855469 726.527344 337.8125 726.542969 337.773438 726.554688 C 337.710938 726.578125 337.652344 726.597656 337.59375 726.492188 C 337.554688 726.40625 337.519531 726.332031 337.488281 726.261719 C 337.425781 726.132812 337.371094 726.007812 337.28125 725.867188 C 337.207031 725.757812 337.160156 725.757812 337.089844 725.757812 C 337.058594 725.757812 337.023438 725.757812 336.984375 725.75 C 336.917969 725.742188 336.832031 725.675781 336.75 725.59375 C 336.621094 725.46875 336.492188 725.300781 336.4375 725.226562 C 336.390625 725.160156 336.351562 725.101562 336.316406 725.050781 C 336.1875 724.855469 336.136719 724.777344 335.839844 724.625 C 335.761719 724.710938 335.671875 724.785156 335.578125 724.859375 C 335.40625 725.007812 335.230469 725.152344 335.144531 725.34375 C 335.03125 725.597656 334.933594 725.777344 334.8125 725.949219 C 334.695312 726.121094 334.558594 726.285156 334.367188 726.503906 C 334.339844 726.535156 334.320312 726.558594 334.300781 726.574219 C 334.339844 726.636719 334.378906 726.703125 334.429688 726.765625 L 334.554688 726.773438 L 334.558594 726.773438 L 334.558594 726.777344 L 334.609375 726.78125 C 334.621094 726.78125 334.628906 726.785156 334.632812 726.792969 L 334.964844 727.191406 L 335.125 727.167969 L 335.144531 727.167969 L 335.144531 727.171875 L 335.148438 727.171875 L 335.148438 727.175781 L 335.152344 727.175781 L 335.152344 727.179688 L 335.15625 727.179688 L 335.160156 727.1875 L 335.171875 727.195312 L 335.171875 727.199219 L 335.199219 727.226562 L 335.203125 727.234375 L 335.222656 727.257812 L 335.257812 727.296875 L 335.273438 727.3125 L 335.285156 727.328125 L 335.335938 727.382812 L 335.355469 727.402344 L 335.371094 727.421875 L 335.375 727.429688 L 335.410156 727.464844 L 335.410156 727.46875 L 335.425781 727.484375 L 335.425781 727.488281 L 335.441406 727.503906 L 335.445312 727.503906 L 335.445312 727.507812 L 335.449219 727.511719 L 335.449219 727.515625 L 335.453125 727.515625 L 335.460938 727.523438 L 335.460938 727.527344 L 335.480469 727.546875 L 335.480469 727.550781 L 335.492188 727.558594 L 335.492188 727.5625 L 335.5 727.570312 L 335.503906 727.570312 L 335.511719 727.582031 L 335.523438 727.59375 L 335.53125 727.605469 L 335.542969 727.617188 L 335.550781 727.628906 L 335.554688 727.628906 L 335.570312 727.652344 L 335.574219 727.652344 L 335.582031 727.664062 L 335.601562 727.683594 L 335.601562 727.6875 L 335.613281 727.695312 L 335.613281 727.699219 L 335.621094 727.707031 L 335.621094 727.710938 L 335.632812 727.71875 L 335.640625 727.730469 L 335.644531 727.730469 L 335.652344 727.742188 L 335.664062 727.753906 L 335.671875 727.765625 L 335.683594 727.777344 L 335.691406 727.789062 L 335.695312 727.789062 L 335.710938 727.8125 L 335.714844 727.8125 L 335.722656 727.820312 L 335.722656 727.824219 L 335.734375 727.832031 L 335.734375 727.835938 L 335.753906 727.855469 L 335.761719 727.867188 L 335.765625 727.867188 L 335.773438 727.878906 L 335.785156 727.890625 L 335.792969 727.902344 L 335.804688 727.914062 L 335.8125 727.925781 L 335.824219 727.9375 L 335.835938 727.945312 L 335.835938 727.949219 L 335.84375 727.957031 L 335.84375 727.960938 L 335.855469 727.96875 L 335.863281 727.980469 L 335.875 727.992188 L 335.882812 728.003906 L 335.886719 728.003906 L 335.894531 728.015625 L 335.90625 728.027344 L 335.914062 728.039062 L 335.925781 728.046875 L 335.925781 728.050781 L 335.9375 728.058594 L 335.945312 728.070312 L 335.964844 728.09375 L 335.976562 728.105469 L 335.984375 728.117188 L 335.988281 728.117188 L 335.996094 728.128906 L 336.027344 728.160156 L 336.035156 728.171875 L 336.039062 728.171875 L 336.046875 728.183594 L 336.058594 728.195312 L 336.066406 728.207031 L 336.078125 728.21875 L 336.089844 728.226562 L 336.097656 728.238281 L 336.101562 728.242188 L 336.101562 728.246094 L 336.105469 728.246094 L 336.105469 728.25 L 336.109375 728.25 L 336.109375 728.253906 L 336.113281 728.253906 L 336.113281 728.257812 L 336.117188 728.257812 L 336.117188 728.261719 L 336.121094 728.261719 L 336.121094 728.265625 L 336.125 728.265625 L 336.125 728.269531 L 336.128906 728.269531 L 336.128906 728.273438 L 336.132812 728.273438 L 336.132812 728.277344 L 336.136719 728.277344 L 336.136719 728.28125 L 336.140625 728.28125 Z M 336.144531 728.285156 " fill-opacity="1" fill-rule="evenodd"/></g><g clip-path="url(#22ed894272)"><path fill="#ffffff" d="M 1098.589844 797.359375 C 1098.550781 797.40625 1098.523438 797.984375 1098.523438 798.628906 C 1098.523438 799.734375 1098.53125 799.804688 1098.714844 799.804688 C 1098.90625 799.804688 1098.914062 799.746094 1098.886719 798.582031 C 1098.855469 797.453125 1098.78125 797.128906 1098.589844 797.359375 Z M 1098.589844 797.359375 " fill-opacity="1" fill-rule="nonzero"/></g><g clip-path="url(#60fa274bd2)"><path fill="#ffffff" d="M 1097.792969 797.660156 C 1097.707031 797.839844 1097.910156 798.054688 1098.082031 797.96875 C 1098.167969 797.921875 1098.234375 797.816406 1098.234375 797.707031 C 1098.234375 797.503906 1097.898438 797.453125 1097.792969 797.660156 Z M 1097.792969 797.660156 " fill-opacity="1" fill-rule="nonzero"/></g><g clip-path="url(#ff01e91075)"><path fill="#ffffff" d="M 1093.636719 797.765625 C 1093.636719 797.828125 1093.742188 797.886719 1093.875 797.886719 C 1094.132812 797.886719 1094.144531 797.945312 1094.152344 799.148438 C 1094.164062 799.652344 1094.191406 799.746094 1094.355469 799.78125 C 1094.535156 799.820312 1094.546875 799.746094 1094.546875 798.882812 C 1094.546875 797.945312 1094.546875 797.945312 1094.8125 797.910156 C 1095.359375 797.828125 1095.042969 797.648438 1094.355469 797.648438 C 1093.941406 797.648438 1093.636719 797.695312 1093.636719 797.765625 Z M 1093.636719 797.765625 " fill-opacity="1" fill-rule="nonzero"/></g><g clip-path="url(#f352a540ff)"><path fill="#ffffff" d="M 1103.695312 798.019531 C 1103.695312 798.101562 1103.617188 798.234375 1103.53125 798.320312 C 1103.371094 798.472656 1103.371094 798.472656 1103.53125 798.488281 C 1103.65625 798.488281 1103.695312 798.59375 1103.695312 798.964844 C 1103.695312 799.289062 1103.761719 799.53125 1103.886719 799.6875 C 1104.089844 799.9375 1104.164062 799.960938 1104.40625 799.855469 C 1104.632812 799.746094 1104.585938 799.566406 1104.347656 799.601562 C 1104.144531 799.625 1104.125 799.566406 1104.097656 799.050781 C 1104.070312 798.511719 1104.078125 798.488281 1104.308594 798.488281 C 1104.453125 798.488281 1104.558594 798.425781 1104.558594 798.367188 C 1104.558594 798.292969 1104.453125 798.246094 1104.316406 798.246094 C 1104.164062 798.246094 1104.078125 798.175781 1104.078125 798.066406 C 1104.078125 797.96875 1103.992188 797.886719 1103.886719 797.886719 C 1103.78125 797.886719 1103.695312 797.945312 1103.695312 798.019531 Z M 1103.695312 798.019531 " fill-opacity="1" fill-rule="nonzero"/></g><g clip-path="url(#8fb08d92b0)"><path fill="#ffffff" d="M 1095.265625 799.027344 C 1095.265625 799.722656 1095.285156 799.804688 1095.457031 799.804688 C 1095.617188 799.804688 1095.648438 799.722656 1095.648438 799.277344 C 1095.648438 798.75 1095.800781 798.449219 1096.03125 798.511719 C 1096.097656 798.535156 1096.175781 798.472656 1096.195312 798.390625 C 1096.25 798.210938 1096.089844 798.199219 1095.828125 798.367188 C 1095.703125 798.449219 1095.648438 798.449219 1095.648438 798.367188 C 1095.648438 798.304688 1095.5625 798.246094 1095.457031 798.246094 C 1095.285156 798.246094 1095.265625 798.332031 1095.265625 799.027344 Z M 1095.265625 799.027344 " fill-opacity="1" fill-rule="nonzero"/></g><g clip-path="url(#1215462f50)"><path fill="#ffffff" d="M 1096.539062 798.332031 C 1096.40625 798.390625 1096.367188 798.726562 1096.492188 798.726562 C 1096.527344 798.726562 1096.613281 798.667969 1096.671875 798.59375 C 1096.816406 798.414062 1097.085938 798.546875 1097.085938 798.785156 C 1097.085938 798.894531 1097 798.964844 1096.855469 798.964844 C 1096.546875 798.964844 1096.316406 799.253906 1096.386719 799.554688 C 1096.441406 799.84375 1096.664062 799.960938 1096.882812 799.820312 C 1096.980469 799.746094 1097.105469 799.746094 1097.179688 799.804688 C 1097.257812 799.867188 1097.351562 799.878906 1097.390625 799.855469 C 1097.515625 799.757812 1097.476562 798.546875 1097.351562 798.390625 C 1097.238281 798.246094 1096.757812 798.210938 1096.539062 798.332031 Z M 1097.085938 799.375 C 1097.085938 799.46875 1097.035156 799.589844 1096.980469 799.636719 C 1096.84375 799.734375 1096.664062 799.507812 1096.738281 799.339844 C 1096.835938 799.148438 1097.085938 799.183594 1097.085938 799.375 Z M 1097.085938 799.375 " fill-opacity="1" fill-rule="nonzero"/></g><g clip-path="url(#dbaa899c1e)"><path fill="#ffffff" d="M 1097.851562 799.015625 C 1097.851562 799.699219 1097.871094 799.804688 1098.023438 799.804688 C 1098.175781 799.804688 1098.195312 799.699219 1098.195312 799.0625 C 1098.1875 798.4375 1098.15625 798.304688 1098.023438 798.269531 C 1097.871094 798.234375 1097.851562 798.332031 1097.851562 799.015625 Z M 1097.851562 799.015625 " fill-opacity="1" fill-rule="nonzero"/></g><g clip-path="url(#b4b302718f)"><path fill="#ffffff" d="M 1099.171875 798.304688 C 1099.144531 798.34375 1099.210938 798.691406 1099.328125 799.085938 C 1099.488281 799.6875 1099.566406 799.804688 1099.75 799.804688 C 1099.910156 799.804688 1100.015625 799.6875 1100.152344 799.289062 C 1100.398438 798.617188 1100.398438 798.246094 1100.152344 798.246094 C 1100.015625 798.246094 1099.957031 798.332031 1099.957031 798.511719 C 1099.957031 798.894531 1099.851562 799.328125 1099.765625 799.328125 C 1099.730469 799.328125 1099.671875 799.160156 1099.632812 798.941406 C 1099.546875 798.414062 1099.328125 798.113281 1099.171875 798.304688 Z M 1099.171875 798.304688 " fill-opacity="1" fill-rule="nonzero"/></g><g clip-path="url(#fea15fb182)"><path fill="#ffffff" d="M 1100.78125 798.472656 C 1100.523438 798.835938 1100.609375 799.578125 1100.9375 799.78125 C 1101.203125 799.9375 1101.683594 799.867188 1101.683594 799.664062 C 1101.683594 799.601562 1101.558594 799.578125 1101.40625 799.625 C 1101.175781 799.6875 1101.097656 799.652344 1101.011719 799.457031 C 1100.925781 799.230469 1100.9375 799.207031 1101.148438 799.207031 C 1101.539062 799.207031 1101.683594 799.074219 1101.683594 798.726562 C 1101.683594 798.210938 1101.089844 798.042969 1100.78125 798.472656 Z M 1101.347656 798.738281 C 1101.347656 798.835938 1101.253906 798.917969 1101.128906 798.941406 C 1100.925781 798.980469 1100.917969 798.953125 1101.011719 798.726562 C 1101.128906 798.449219 1101.347656 798.460938 1101.347656 798.738281 Z M 1101.347656 798.738281 " fill-opacity="1" fill-rule="nonzero"/></g><g clip-path="url(#ec2bad8cc2)"><path fill="#ffffff" d="M 1102.046875 799.039062 C 1102.078125 799.589844 1102.125 799.804688 1102.210938 799.804688 C 1102.296875 799.804688 1102.355469 799.625 1102.375 799.253906 C 1102.390625 798.871094 1102.460938 798.640625 1102.574219 798.558594 C 1102.8125 798.367188 1102.929688 798.65625 1102.863281 799.289062 C 1102.8125 799.757812 1102.824219 799.804688 1103.015625 799.804688 C 1103.195312 799.804688 1103.214844 799.734375 1103.214844 799.160156 C 1103.214844 798.785156 1103.167969 798.460938 1103.101562 798.390625 C 1103.035156 798.332031 1102.765625 798.269531 1102.496094 798.269531 L 1102.019531 798.269531 Z M 1102.046875 799.039062 " fill-opacity="1" fill-rule="nonzero"/></g><g clip-path="url(#bf2901a7dd)"><path fill="#ffffff" d="M 1104.824219 798.992188 C 1104.875 799.792969 1104.96875 799.972656 1105.277344 799.855469 C 1105.382812 799.820312 1105.582031 799.792969 1105.734375 799.792969 C 1105.996094 799.804688 1105.996094 799.804688 1105.996094 799.027344 C 1105.996094 798.332031 1105.976562 798.246094 1105.804688 798.246094 C 1105.628906 798.246094 1105.613281 798.332031 1105.613281 798.894531 C 1105.613281 799.339844 1105.574219 799.566406 1105.476562 799.601562 C 1105.257812 799.710938 1105.132812 799.421875 1105.132812 798.824219 C 1105.132812 798.34375 1105.105469 798.246094 1104.960938 798.246094 C 1104.808594 798.246094 1104.789062 798.332031 1104.824219 798.992188 Z M 1104.824219 798.992188 " fill-opacity="1" fill-rule="nonzero"/></g><g clip-path="url(#143f0a6a54)"><path fill="#ffffff" d="M 1106.367188 798.332031 C 1106.359375 798.390625 1106.359375 798.726562 1106.359375 799.085938 C 1106.359375 799.601562 1106.386719 799.757812 1106.511719 799.78125 C 1106.636719 799.820312 1106.664062 799.710938 1106.664062 799.277344 C 1106.664062 798.859375 1106.703125 798.703125 1106.855469 798.605469 C 1106.960938 798.535156 1107.097656 798.511719 1107.144531 798.546875 C 1107.203125 798.582031 1107.242188 798.535156 1107.242188 798.4375 C 1107.242188 798.210938 1107.039062 798.1875 1106.867188 798.390625 C 1106.761719 798.511719 1106.734375 798.511719 1106.695312 798.390625 C 1106.644531 798.234375 1106.386719 798.1875 1106.367188 798.332031 Z M 1106.367188 798.332031 " fill-opacity="1" fill-rule="nonzero"/></g><g clip-path="url(#7ee01c8e05)"><path fill="#ffffff" d="M 1107.625 798.488281 C 1107.433594 798.726562 1107.375 799.265625 1107.507812 799.519531 C 1107.710938 799.902344 1108.484375 800.023438 1108.484375 799.675781 C 1108.484375 799.601562 1108.398438 799.578125 1108.292969 799.625 C 1108.09375 799.710938 1107.816406 799.519531 1107.816406 799.316406 C 1107.816406 799.253906 1107.902344 799.207031 1108.015625 799.207031 C 1108.484375 799.207031 1108.746094 798.738281 1108.464844 798.390625 C 1108.285156 798.164062 1107.835938 798.222656 1107.625 798.488281 Z M 1108.199219 798.667969 C 1108.199219 798.859375 1107.941406 799.050781 1107.84375 798.929688 C 1107.816406 798.882812 1107.816406 798.773438 1107.84375 798.667969 C 1107.921875 798.425781 1108.199219 798.425781 1108.199219 798.667969 Z M 1108.199219 798.667969 " fill-opacity="1" fill-rule="nonzero"/></g><g clip-path="url(#9767fdfd51)"><path fill="#ef4444" d="M 1090.546875 799.871094 L 1090.585938 799.871094 L 1090.585938 799.875 L 1090.652344 799.875 L 1090.652344 799.878906 L 1090.789062 799.878906 C 1090.8125 799.878906 1090.835938 799.878906 1090.859375 799.878906 L 1090.875 799.878906 L 1090.851562 799.855469 L 1090.847656 799.847656 L 1090.839844 799.84375 L 1090.824219 799.828125 L 1090.820312 799.820312 L 1090.800781 799.800781 L 1090.796875 799.800781 L 1090.796875 799.796875 L 1090.777344 799.777344 L 1090.773438 799.769531 L 1090.757812 799.753906 L 1090.75 799.75 L 1090.746094 799.742188 L 1090.730469 799.726562 L 1090.726562 799.71875 L 1090.71875 799.710938 L 1090.710938 799.707031 L 1090.703125 799.699219 L 1090.699219 799.691406 L 1090.683594 799.675781 L 1090.679688 799.667969 L 1090.675781 799.667969 L 1090.664062 799.65625 L 1090.660156 799.648438 L 1090.65625 799.648438 L 1090.652344 799.640625 L 1090.636719 799.625 L 1090.632812 799.617188 L 1090.625 799.613281 L 1090.625 799.609375 L 1090.617188 799.605469 L 1090.613281 799.597656 L 1090.605469 799.589844 L 1090.59375 799.574219 L 1090.589844 799.574219 L 1090.585938 799.566406 L 1090.578125 799.5625 L 1090.578125 799.558594 L 1090.574219 799.554688 L 1090.570312 799.554688 L 1090.566406 799.546875 L 1090.550781 799.53125 L 1090.546875 799.523438 L 1090.539062 799.519531 L 1090.539062 799.515625 L 1090.53125 799.511719 L 1090.527344 799.503906 L 1090.523438 799.503906 L 1090.519531 799.496094 L 1090.511719 799.488281 L 1090.507812 799.480469 L 1090.503906 799.480469 L 1090.5 799.472656 L 1090.492188 799.46875 L 1090.492188 799.464844 L 1090.488281 799.460938 L 1090.484375 799.460938 L 1090.480469 799.453125 L 1090.464844 799.4375 L 1090.460938 799.429688 L 1090.453125 799.421875 L 1090.445312 799.417969 L 1090.445312 799.414062 L 1090.257812 799.210938 L 1090.15625 799.226562 C 1090.144531 799.230469 1090.136719 799.226562 1090.132812 799.21875 L 1089.914062 798.960938 L 1089.898438 798.960938 C 1089.863281 798.996094 1089.832031 799.035156 1089.796875 799.070312 C 1089.761719 799.105469 1089.722656 799.144531 1089.6875 799.179688 C 1089.675781 799.1875 1089.667969 799.195312 1089.660156 799.203125 C 1089.667969 799.210938 1089.671875 799.21875 1089.679688 799.230469 C 1089.691406 799.242188 1089.703125 799.257812 1089.714844 799.269531 L 1089.71875 799.269531 L 1089.804688 799.277344 C 1089.808594 799.277344 1089.8125 799.277344 1089.816406 799.28125 L 1089.980469 799.441406 L 1090.054688 799.429688 C 1090.0625 799.429688 1090.070312 799.433594 1090.074219 799.4375 C 1090.226562 799.574219 1090.390625 799.742188 1090.546875 799.871094 M 1089.761719 797.828125 C 1089.8125 797.828125 1089.859375 797.847656 1089.890625 797.878906 C 1089.925781 797.910156 1089.945312 797.957031 1089.945312 798.003906 C 1089.945312 798.054688 1089.925781 798.097656 1089.890625 798.128906 C 1089.859375 798.160156 1089.8125 798.183594 1089.761719 798.183594 C 1089.710938 798.183594 1089.664062 798.160156 1089.628906 798.128906 C 1089.597656 798.097656 1089.574219 798.054688 1089.574219 798.003906 C 1089.574219 797.957031 1089.597656 797.910156 1089.628906 797.878906 C 1089.664062 797.847656 1089.710938 797.828125 1089.761719 797.828125 Z M 1089.675781 798.796875 C 1089.664062 798.773438 1089.652344 798.753906 1089.640625 798.730469 C 1089.589844 798.640625 1089.542969 798.554688 1089.453125 798.476562 L 1089.4375 798.457031 C 1089.417969 798.441406 1089.410156 798.4375 1089.410156 798.4375 C 1089.40625 798.4375 1089.398438 798.441406 1089.382812 798.445312 C 1089.371094 798.453125 1089.359375 798.460938 1089.339844 798.46875 C 1089.253906 798.507812 1089.175781 798.546875 1089.113281 798.597656 C 1089.054688 798.644531 1089.007812 798.707031 1088.976562 798.796875 C 1088.953125 798.882812 1088.921875 798.949219 1088.882812 799.011719 C 1088.847656 799.078125 1088.800781 799.136719 1088.75 799.207031 C 1088.730469 799.234375 1088.710938 799.261719 1088.695312 799.289062 C 1088.605469 799.414062 1088.527344 799.46875 1088.449219 799.527344 C 1088.394531 799.566406 1088.339844 799.605469 1088.277344 799.667969 C 1088.238281 799.710938 1088.207031 799.742188 1088.183594 799.773438 C 1088.164062 799.800781 1088.144531 799.832031 1088.128906 799.867188 L 1088.1875 799.863281 C 1088.21875 799.863281 1088.25 799.863281 1088.28125 799.863281 C 1088.464844 799.863281 1088.648438 799.871094 1088.832031 799.875 C 1089.058594 799.882812 1089.285156 799.890625 1089.511719 799.886719 L 1089.570312 799.886719 C 1089.621094 799.886719 1089.667969 799.886719 1089.71875 799.882812 C 1089.808594 799.878906 1089.878906 799.871094 1089.945312 799.863281 C 1090.082031 799.84375 1090.195312 799.832031 1090.402344 799.855469 C 1090.429688 799.859375 1090.453125 799.859375 1090.472656 799.863281 C 1090.328125 799.742188 1090.1875 799.597656 1090.050781 799.472656 L 1089.972656 799.484375 C 1089.964844 799.484375 1089.957031 799.480469 1089.953125 799.476562 L 1089.792969 799.316406 L 1089.710938 799.308594 L 1089.707031 799.308594 L 1089.699219 799.304688 C 1089.695312 799.304688 1089.691406 799.304688 1089.691406 799.300781 C 1089.6875 799.300781 1089.6875 799.300781 1089.683594 799.296875 C 1089.671875 799.285156 1089.65625 799.269531 1089.644531 799.253906 C 1089.632812 799.238281 1089.625 799.222656 1089.613281 799.207031 C 1089.605469 799.199219 1089.609375 799.1875 1089.617188 799.183594 L 1089.617188 799.179688 C 1089.625 799.175781 1089.636719 799.164062 1089.65625 799.148438 C 1089.691406 799.117188 1089.726562 799.078125 1089.765625 799.042969 C 1089.792969 799.011719 1089.820312 798.984375 1089.84375 798.957031 L 1089.792969 798.953125 C 1089.789062 798.953125 1089.78125 798.949219 1089.777344 798.945312 C 1089.738281 798.898438 1089.703125 798.847656 1089.675781 798.796875 Z M 1089.988281 797.757812 C 1089.996094 797.75 1090.011719 797.75 1090.019531 797.757812 C 1090.027344 797.765625 1090.027344 797.777344 1090.019531 797.785156 L 1089.964844 797.839844 C 1089.957031 797.847656 1089.941406 797.847656 1089.933594 797.839844 C 1089.925781 797.832031 1089.925781 797.816406 1089.933594 797.808594 Z M 1090.105469 797.984375 C 1090.117188 797.984375 1090.125 797.992188 1090.125 798.003906 C 1090.125 798.015625 1090.117188 798.023438 1090.105469 798.023438 L 1090.027344 798.023438 C 1090.011719 798.023438 1090.003906 798.015625 1090.003906 798.003906 C 1090.003906 797.992188 1090.011719 797.984375 1090.027344 797.984375 Z M 1090.019531 798.222656 C 1090.027344 798.230469 1090.027344 798.246094 1090.019531 798.253906 C 1090.011719 798.261719 1089.996094 798.261719 1089.988281 798.253906 L 1089.933594 798.199219 C 1089.925781 798.191406 1089.925781 798.179688 1089.933594 798.171875 C 1089.941406 798.164062 1089.957031 798.164062 1089.964844 798.171875 Z M 1089.78125 798.335938 C 1089.78125 798.347656 1089.773438 798.355469 1089.761719 798.355469 C 1089.75 798.355469 1089.738281 798.347656 1089.738281 798.335938 L 1089.738281 798.257812 C 1089.738281 798.25 1089.75 798.238281 1089.761719 798.238281 C 1089.773438 798.238281 1089.78125 798.25 1089.78125 798.257812 Z M 1089.535156 798.253906 C 1089.523438 798.261719 1089.511719 798.261719 1089.503906 798.253906 C 1089.492188 798.246094 1089.492188 798.230469 1089.503906 798.222656 L 1089.558594 798.171875 C 1089.566406 798.164062 1089.578125 798.164062 1089.589844 798.171875 C 1089.597656 798.179688 1089.597656 798.191406 1089.589844 798.199219 Z M 1089.417969 798.023438 C 1089.40625 798.023438 1089.394531 798.015625 1089.394531 798.003906 C 1089.394531 797.992188 1089.40625 797.984375 1089.417969 797.984375 L 1089.496094 797.984375 C 1089.507812 797.984375 1089.515625 797.992188 1089.515625 798.003906 C 1089.515625 798.015625 1089.507812 798.023438 1089.496094 798.023438 Z M 1089.503906 797.785156 C 1089.492188 797.777344 1089.492188 797.765625 1089.503906 797.757812 C 1089.511719 797.75 1089.523438 797.75 1089.535156 797.757812 L 1089.589844 797.808594 C 1089.597656 797.816406 1089.597656 797.832031 1089.589844 797.839844 C 1089.578125 797.847656 1089.566406 797.847656 1089.558594 797.839844 Z M 1089.738281 797.675781 C 1089.738281 797.664062 1089.75 797.652344 1089.761719 797.652344 C 1089.773438 797.652344 1089.78125 797.664062 1089.78125 797.675781 L 1089.78125 797.75 C 1089.78125 797.761719 1089.773438 797.769531 1089.761719 797.769531 C 1089.75 797.769531 1089.738281 797.761719 1089.738281 797.75 Z M 1090.9375 799.878906 L 1091.105469 799.878906 C 1091.242188 799.878906 1091.398438 799.859375 1091.550781 799.839844 C 1091.78125 799.808594 1092.003906 799.777344 1092.160156 799.816406 L 1092.164062 799.816406 C 1092.152344 799.796875 1092.144531 799.777344 1092.132812 799.753906 C 1092.105469 799.695312 1092.082031 799.636719 1092.027344 799.59375 C 1092.003906 799.574219 1091.941406 799.539062 1091.871094 799.496094 C 1091.699219 799.398438 1091.460938 799.257812 1091.414062 799.171875 C 1091.394531 799.128906 1091.378906 799.089844 1091.363281 799.054688 C 1091.324219 798.960938 1091.296875 798.898438 1091.167969 798.878906 C 1091.136719 798.871094 1091.101562 798.847656 1091.066406 798.8125 C 1091.011719 798.761719 1090.957031 798.695312 1090.933594 798.664062 C 1090.914062 798.636719 1090.898438 798.613281 1090.882812 798.59375 C 1090.832031 798.515625 1090.808594 798.484375 1090.679688 798.421875 C 1090.667969 798.414062 1090.664062 798.402344 1090.671875 798.394531 C 1090.675781 798.382812 1090.6875 798.378906 1090.699219 798.382812 C 1090.839844 798.453125 1090.863281 798.484375 1090.921875 798.570312 C 1090.933594 798.589844 1090.949219 798.613281 1090.96875 798.640625 C 1090.992188 798.667969 1091.042969 798.734375 1091.097656 798.785156 C 1091.125 798.8125 1091.15625 798.835938 1091.171875 798.835938 C 1091.332031 798.859375 1091.359375 798.929688 1091.40625 799.039062 C 1091.417969 799.074219 1091.433594 799.113281 1091.453125 799.152344 C 1091.496094 799.230469 1091.730469 799.367188 1091.894531 799.464844 C 1091.96875 799.507812 1092.027344 799.542969 1092.054688 799.5625 C 1092.117188 799.609375 1092.144531 799.675781 1092.175781 799.738281 C 1092.1875 799.769531 1092.203125 799.800781 1092.21875 799.832031 C 1092.351562 799.859375 1092.429688 799.855469 1092.550781 799.851562 C 1092.582031 799.851562 1092.613281 799.847656 1092.648438 799.847656 C 1092.753906 799.847656 1092.851562 799.855469 1092.949219 799.863281 C 1093.015625 799.871094 1093.082031 799.878906 1093.148438 799.878906 C 1093.09375 799.8125 1093.0625 799.738281 1093.03125 799.664062 C 1092.988281 799.566406 1092.945312 799.472656 1092.859375 799.40625 C 1092.75 799.320312 1092.636719 799.285156 1092.535156 799.25 C 1092.351562 799.1875 1092.1875 799.132812 1092.089844 798.851562 C 1092.0625 798.761719 1092.035156 798.773438 1092.007812 798.78125 C 1091.96875 798.792969 1091.929688 798.808594 1091.894531 798.738281 C 1091.863281 798.683594 1091.84375 798.640625 1091.820312 798.59375 C 1091.78125 798.511719 1091.746094 798.433594 1091.683594 798.339844 C 1091.636719 798.273438 1091.605469 798.273438 1091.558594 798.273438 C 1091.539062 798.273438 1091.515625 798.273438 1091.488281 798.269531 C 1091.445312 798.261719 1091.390625 798.222656 1091.335938 798.167969 C 1091.25 798.089844 1091.164062 797.980469 1091.128906 797.933594 C 1091.097656 797.890625 1091.074219 797.855469 1091.050781 797.824219 C 1090.964844 797.699219 1090.929688 797.648438 1090.738281 797.554688 C 1090.683594 797.605469 1090.625 797.652344 1090.566406 797.703125 C 1090.449219 797.796875 1090.335938 797.886719 1090.277344 798.007812 C 1090.203125 798.171875 1090.136719 798.285156 1090.058594 798.394531 C 1089.980469 798.503906 1089.890625 798.609375 1089.765625 798.746094 C 1089.746094 798.765625 1089.734375 798.78125 1089.722656 798.792969 C 1089.746094 798.832031 1089.773438 798.875 1089.808594 798.914062 L 1089.890625 798.921875 L 1089.925781 798.921875 C 1089.933594 798.921875 1089.9375 798.925781 1089.941406 798.929688 L 1090.160156 799.1875 L 1090.265625 799.167969 L 1090.273438 799.167969 L 1090.273438 799.171875 L 1090.28125 799.171875 L 1090.28125 799.175781 L 1090.285156 799.175781 L 1090.296875 799.1875 L 1090.296875 799.191406 L 1090.304688 799.195312 L 1090.304688 799.199219 L 1090.308594 799.199219 L 1090.3125 799.207031 L 1090.332031 799.226562 L 1090.351562 799.25 L 1090.371094 799.269531 L 1090.40625 799.308594 L 1090.414062 799.320312 L 1090.417969 799.320312 L 1090.425781 799.332031 L 1090.445312 799.351562 L 1090.445312 799.355469 L 1090.449219 799.355469 L 1090.457031 799.363281 L 1090.457031 799.367188 L 1090.460938 799.367188 L 1090.460938 799.371094 L 1090.464844 799.371094 L 1090.464844 799.375 L 1090.472656 799.382812 L 1090.476562 799.382812 L 1090.476562 799.386719 L 1090.488281 799.398438 L 1090.492188 799.40625 L 1090.5 799.410156 L 1090.5 799.414062 L 1090.507812 799.417969 L 1090.511719 799.425781 L 1090.515625 799.425781 L 1090.519531 799.433594 L 1090.527344 799.441406 L 1090.53125 799.449219 L 1090.535156 799.449219 L 1090.539062 799.457031 L 1090.546875 799.460938 L 1090.546875 799.464844 L 1090.554688 799.46875 L 1090.558594 799.476562 L 1090.574219 799.492188 L 1090.578125 799.5 L 1090.585938 799.507812 L 1090.59375 799.511719 L 1090.59375 799.515625 L 1090.597656 799.519531 L 1090.601562 799.519531 L 1090.605469 799.527344 L 1090.613281 799.535156 L 1090.617188 799.542969 L 1090.621094 799.542969 L 1090.625 799.550781 L 1090.632812 799.558594 L 1090.640625 799.5625 L 1090.640625 799.566406 L 1090.660156 799.585938 L 1090.664062 799.59375 L 1090.667969 799.59375 L 1090.671875 799.601562 L 1090.679688 799.609375 L 1090.6875 799.613281 L 1090.691406 799.621094 L 1090.707031 799.636719 L 1090.710938 799.644531 L 1090.71875 799.652344 L 1090.726562 799.65625 L 1090.726562 799.660156 L 1090.730469 799.664062 L 1090.734375 799.664062 L 1090.738281 799.671875 L 1090.753906 799.6875 L 1090.757812 799.695312 L 1090.765625 799.699219 L 1090.765625 799.703125 L 1090.773438 799.707031 L 1090.777344 799.714844 L 1090.800781 799.738281 L 1090.804688 799.746094 L 1090.820312 799.757812 L 1090.824219 799.765625 L 1090.867188 799.808594 L 1090.871094 799.816406 L 1090.878906 799.824219 L 1090.886719 799.828125 L 1090.894531 799.835938 L 1090.898438 799.84375 L 1090.90625 799.851562 L 1090.910156 799.851562 L 1090.910156 799.855469 L 1090.914062 799.855469 L 1090.914062 799.859375 L 1090.917969 799.859375 L 1090.917969 799.863281 L 1090.921875 799.863281 L 1090.921875 799.867188 L 1090.925781 799.867188 L 1090.925781 799.871094 L 1090.929688 799.871094 L 1090.929688 799.875 L 1090.933594 799.875 L 1090.933594 799.878906 Z M 1090.9375 799.878906 " fill-opacity="1" fill-rule="evenodd"/></g></svg>